<svg xmlns="http://www.w3.org/2000/svg" xmlns:xlink="http://www.w3.org/1999/xlink" xmlns:lucid="lucid" width="1238.73" height="2400.81"><g transform="translate(0 0)" lucid:page-tab-id="HWEp-vi-RSFO"><path d="M171 46h89v74H20V20h144zM20 46h151" stroke="#333" stroke-width="2" fill="#fff"/><use xlink:href="#a" transform="matrix(1,0,0,1,28,20) translate(42.5 16.6)"/><use xlink:href="#b" transform="matrix(1,0,0,1,32,54) translate(9.649999999999991 32.6)"/><use xlink:href="#c" transform="matrix(1,0,0,1,32,54) translate(69.55 32.6)"/><use xlink:href="#d" transform="matrix(1,0,0,1,32,54) translate(127.5 32.6)"/><path d="M411 286h89v74H260V260h144zm-151 0h151" stroke="#333" stroke-width="2" fill="#fff"/><use xlink:href="#e" transform="matrix(1,0,0,1,268,260) translate(31.574999999999996 16.6)"/><use xlink:href="#f" transform="matrix(1,0,0,1,272,294) translate(3.6500000000000057 21.799999999999997)"/><use xlink:href="#g" transform="matrix(1,0,0,1,272,294) translate(75.60000000000001 21.799999999999997)"/><use xlink:href="#h" transform="matrix(1,0,0,1,272,294) translate(98.5 21.799999999999997)"/><use xlink:href="#i" transform="matrix(1,0,0,1,272,294) translate(158.4 21.799999999999997)"/><use xlink:href="#j" transform="matrix(1,0,0,1,272,294) translate(70.05 43.4)"/><path d="M411 406h89v74H260V380h144zm-151 0h151" stroke="#333" stroke-width="2" fill="#fff"/><use xlink:href="#k" transform="matrix(1,0,0,1,268,380) translate(1.0499999999999972 16.6)"/><use xlink:href="#f" transform="matrix(1,0,0,1,272,414) translate(13.625 14.4)"/><use xlink:href="#g" transform="matrix(1,0,0,1,272,414) translate(85.575 14.4)"/><use xlink:href="#l" transform="matrix(1,0,0,1,272,414) translate(108.475 14.4)"/><use xlink:href="#m" transform="matrix(1,0,0,1,272,414) translate(138.475 14.4)"/><use xlink:href="#n" transform="matrix(1,0,0,1,272,414) translate(9.099999999999994 36)"/><use xlink:href="#o" transform="matrix(1,0,0,1,272,414) translate(132 36)"/><use xlink:href="#p" transform="matrix(1,0,0,1,272,414) translate(191.9 36)"/><use xlink:href="#l" transform="matrix(1,0,0,1,272,414) translate(36.575 57.6)"/><use xlink:href="#q" transform="matrix(1,0,0,1,272,414) translate(66.575 57.6)"/><use xlink:href="#r" transform="matrix(1,0,0,1,272,414) translate(125.525 57.6)"/><path d="M411 646h89v74H260V620h144zm-151 0h151" stroke="#333" stroke-width="2" fill="#fff"/><use xlink:href="#s" transform="matrix(1,0,0,1,268,620) translate(23.049999999999997 16.6)"/><use xlink:href="#f" transform="matrix(1,0,0,1,272,654) translate(30.049999999999997 14.4)"/><use xlink:href="#l" transform="matrix(1,0,0,1,272,654) translate(102 14.4)"/><use xlink:href="#i" transform="matrix(1,0,0,1,272,654) translate(132 14.4)"/><use xlink:href="#t" transform="matrix(1,0,0,1,272,654) translate(19.125 36)"/><use xlink:href="#u" transform="matrix(1,0,0,1,272,654) translate(83.025 36)"/><use xlink:href="#v" transform="matrix(1,0,0,1,272,654) translate(115.975 36)"/><use xlink:href="#w" transform="matrix(1,0,0,1,272,654) translate(153.925 36)"/><use xlink:href="#x" transform="matrix(1,0,0,1,272,654) translate(171.875 36)"/><use xlink:href="#y" transform="matrix(1,0,0,1,272,654) translate(25.224999999999994 57.6)"/><use xlink:href="#z" transform="matrix(1,0,0,1,272,654) translate(83.57499999999999 57.6)"/><use xlink:href="#A" transform="matrix(1,0,0,1,272,654) translate(142.475 57.6)"/><path d="M260 140h220l20 20v80H260z" stroke="#333" stroke-width="2" fill="#fff"/><path d="M480 140.95V160h19.05" stroke="#333" stroke-width="2" fill="#fff"/><use xlink:href="#B" transform="matrix(1,0,0,1,265,145) translate(61.599999999999994 48.6)"/><path d="M140 121.5V178a12 12 0 0 0 12 12h90.62" stroke="#333" fill="none"/><path d="M140.5 121.5h-1v-.5h1z" stroke="#333" stroke-width=".05" fill="#333"/><path d="M257.38 190l-14.26 4.63v-9.26z" stroke="#333" fill="#333"/><path d="M140 121.5V298a12 12 0 0 0 12 12h90.62" stroke="#333" fill="none"/><path d="M140.5 121.5h-1v-.5h1z" stroke="#333" stroke-width=".05" fill="#333"/><path d="M257.38 310l-14.26 4.63v-9.26z" stroke="#333" fill="#333"/><path d="M140 121.5V418a12 12 0 0 0 12 12h90.62" stroke="#333" fill="none"/><path d="M140.5 121.5h-1v-.5h1z" stroke="#333" stroke-width=".05" fill="#333"/><path d="M257.38 430l-14.26 4.63v-9.26z" stroke="#333" fill="#333"/><path d="M140 121.5V658a12 12 0 0 0 12 12h90.62" stroke="#333" fill="none"/><path d="M140.5 121.5h-1v-.5h1z" stroke="#333" stroke-width=".05" fill="#333"/><path d="M257.38 670l-14.26 4.63v-9.26z" stroke="#333" fill="#333"/><path d="M500 500h220l20 20v80H500z" stroke="#333" stroke-width="2" fill="#fff"/><path d="M720 500.95V520h19.05" stroke="#333" stroke-width="2" fill="#fff"/><use xlink:href="#C" transform="matrix(1,0,0,1,505,505) translate(39.57499999999999 48.6)"/><use xlink:href="#D" transform="matrix(1,0,0,1,505,505) translate(161.425 48.6)"/><a xlink:href="http://changlelog.md" target="_blank" transform="matrix(1,0,0,1,505,505)"><path class="lucid-link lucid-hotspot lucid-overlay-hotspot" fill-opacity="0" d="M39.57 34.2h116.85v21.6H39.57z"/></a><path d="M381 481.5V538a12 12 0 0 0 12 12h89.62" stroke="#333" fill="none"/><path d="M381.5 481.5h-1v-.5h1z" stroke="#333" stroke-width=".05" fill="#333"/><path d="M497.38 550l-14.26 4.63v-9.26z" stroke="#333" fill="#333"/><path d="M651 886.25h89v74H500v-100h144zm-151 0h151" stroke="#333" stroke-width="2" fill="#fff"/><use xlink:href="#E" transform="matrix(1,0,0,1,508,860.244768388899) translate(48.025 16.6)"/><use xlink:href="#f" transform="matrix(1,0,0,1,512,894.244768388899) translate(0.5999999999999943 21.799999999999997)"/><use xlink:href="#l" transform="matrix(1,0,0,1,512,894.244768388899) translate(72.55 21.799999999999997)"/><use xlink:href="#z" transform="matrix(1,0,0,1,512,894.244768388899) translate(102.55 21.799999999999997)"/><use xlink:href="#F" transform="matrix(1,0,0,1,512,894.244768388899) translate(161.45 21.799999999999997)"/><use xlink:href="#G" transform="matrix(1,0,0,1,512,894.244768388899) translate(51.5 43.4)"/><use xlink:href="#H" transform="matrix(1,0,0,1,512,894.244768388899) translate(95.5 43.4)"/><use xlink:href="#I" transform="matrix(1,0,0,1,512,894.244768388899) translate(112.5 43.4)"/><path d="M500 740.12h220l20 20v80H500z" stroke="#333" stroke-width="2" fill="#fff"/><path d="M720 741.08v19.04h19.05" stroke="#333" stroke-width="2" fill="#fff"/><use xlink:href="#J" transform="matrix(1,0,0,1,505,745.1223841944495) translate(42.099999999999994 48.6)"/><use xlink:href="#D" transform="matrix(1,0,0,1,505,745.1223841944495) translate(158.9 48.6)"/><a xlink:href="http://pyproject.toml" target="_blank" transform="matrix(1,0,0,1,505,745.1223841944495)"><path class="lucid-link lucid-hotspot lucid-overlay-hotspot" fill-opacity="0" d="M42.1 34.2h111.8v21.6H42.1z"/></a><path d="M380 721.5v56.62a12 12 0 0 0 12 12h90.62" stroke="#333" fill="none"/><path d="M380.5 721.5h-1v-.5h1z" stroke="#333" stroke-width=".05" fill="#333"/><path d="M497.38 790.12l-14.26 4.64v-9.27z" stroke="#333" fill="#333"/><path d="M380 721.5v176.75a12 12 0 0 0 12 12h90.62" stroke="#333" fill="none"/><path d="M380.5 721.5h-1v-.5h1z" stroke="#333" stroke-width=".05" fill="#333"/><path d="M497.38 910.25l-14.26 4.63v-9.27z" stroke="#333" fill="#333"/><path d="M740 980h220l20 20v80H740z" stroke="#333" stroke-width="2" fill="#fff"/><path d="M960 980.95V1000h19.05" stroke="#333" stroke-width="2" fill="#fff"/><use xlink:href="#K" transform="matrix(1,0,0,1,745,985) translate(66.55 48.6)"/><use xlink:href="#D" transform="matrix(1,0,0,1,745,985) translate(134.45 48.6)"/><a xlink:href="http://main.py" target="_blank" transform="matrix(1,0,0,1,745,985)"><path class="lucid-link lucid-hotspot lucid-overlay-hotspot" fill-opacity="0" d="M66.55 34.2h62.9v21.6h-62.9z"/></a><path d="M891 1125.76h89v74H740v-100h144zm-151 0h151" stroke="#333" stroke-width="2" fill="#fff"/><use xlink:href="#L" transform="matrix(1,0,0,1,748,1099.755231611101) translate(41.025 16.6)"/><use xlink:href="#f" transform="matrix(1,0,0,1,752,1133.755231611101) translate(4.1499999999999915 21.799999999999997)"/><use xlink:href="#g" transform="matrix(1,0,0,1,752,1133.755231611101) translate(76.1 21.799999999999997)"/><use xlink:href="#l" transform="matrix(1,0,0,1,752,1133.755231611101) translate(98.99999999999999 21.799999999999997)"/><use xlink:href="#M" transform="matrix(1,0,0,1,752,1133.755231611101) translate(129 21.799999999999997)"/><use xlink:href="#N" transform="matrix(1,0,0,1,752,1133.755231611101) translate(162.95 21.799999999999997)"/><use xlink:href="#O" transform="matrix(1,0,0,1,752,1133.755231611101) translate(0.6749999999999972 43.4)"/><use xlink:href="#P" transform="matrix(1,0,0,1,752,1133.755231611101) translate(59.625 43.4)"/><use xlink:href="#Q" transform="matrix(1,0,0,1,752,1133.755231611101) translate(96.52499999999999 43.4)"/><use xlink:href="#R" transform="matrix(1,0,0,1,752,1133.755231611101) translate(137.47500000000002 43.4)"/><use xlink:href="#S" transform="matrix(1,0,0,1,752,1133.755231611101) translate(177.47500000000002 43.4)"/><path d="M891 1245.5h89v74H740v-100h144zm-151 0h151" stroke="#333" stroke-width="2" fill="#fff"/><use xlink:href="#T" transform="matrix(1,0,0,1,748,1219.510463222202) translate(6.574999999999996 16.6)"/><use xlink:href="#f" transform="matrix(1,0,0,1,752,1253.510463222202) translate(4.175000000000011 21.799999999999997)"/><use xlink:href="#g" transform="matrix(1,0,0,1,752,1253.510463222202) translate(76.12500000000001 21.799999999999997)"/><use xlink:href="#U" transform="matrix(1,0,0,1,752,1253.510463222202) translate(99.025 21.799999999999997)"/><use xlink:href="#V" transform="matrix(1,0,0,1,752,1253.510463222202) translate(176.875 21.799999999999997)"/><use xlink:href="#W" transform="matrix(1,0,0,1,752,1253.510463222202) translate(37.099999999999994 43.4)"/><use xlink:href="#X" transform="matrix(1,0,0,1,752,1253.510463222202) translate(111 43.4)"/><path d="M891 1486h89v74H740v-100h144zm-151 0h151" stroke="#333" stroke-width="2" fill="#fff"/><use xlink:href="#Y" transform="matrix(1,0,0,1,748,1460) translate(43.525 16.6)"/><use xlink:href="#f" transform="matrix(1,0,0,1,752,1494) translate(0.09999999999999432 14.4)"/><use xlink:href="#l" transform="matrix(1,0,0,1,752,1494) translate(72.05 14.4)"/><use xlink:href="#Z" transform="matrix(1,0,0,1,752,1494) translate(102.05 14.4)"/><use xlink:href="#V" transform="matrix(1,0,0,1,752,1494) translate(180.95000000000002 14.4)"/><use xlink:href="#aa" transform="matrix(1,0,0,1,752,1494) translate(16.099999999999994 36)"/><use xlink:href="#H" transform="matrix(1,0,0,1,752,1494) translate(74 36)"/><use xlink:href="#ab" transform="matrix(1,0,0,1,752,1494) translate(91 36)"/><use xlink:href="#ac" transform="matrix(1,0,0,1,752,1494) translate(164.9 36)"/><use xlink:href="#P" transform="matrix(1,0,0,1,752,1494) translate(75.05 57.6)"/><use xlink:href="#D" transform="matrix(1,0,0,1,752,1494) translate(111.94999999999999 57.6)"/><path d="M891 1946h89v74H740v-100h144zm-151 0h151" stroke="#333" stroke-width="2" fill="#fff"/><use xlink:href="#ad" transform="matrix(1,0,0,1,748,1920) translate(41 16.6)"/><use xlink:href="#f" transform="matrix(1,0,0,1,752,1954) translate(3.0999999999999943 14.4)"/><use xlink:href="#ae" transform="matrix(1,0,0,1,752,1954) translate(75.05 14.4)"/><use xlink:href="#af" transform="matrix(1,0,0,1,752,1954) translate(156.9 14.4)"/><use xlink:href="#ag" transform="matrix(1,0,0,1,752,1954) translate(29.099999999999994 36)"/><use xlink:href="#ah" transform="matrix(1,0,0,1,752,1954) translate(102 36)"/><use xlink:href="#ai" transform="matrix(1,0,0,1,752,1954) translate(122 36)"/><use xlink:href="#aj" transform="matrix(1,0,0,1,752,1954) translate(172.95000000000002 36)"/><use xlink:href="#ab" transform="matrix(1,0,0,1,752,1954) translate(24.125 57.6)"/><use xlink:href="#ak" transform="matrix(1,0,0,1,752,1954) translate(98.025 57.6)"/><path d="M891 2186h89v74H740v-100h144zm-151 0h151" stroke="#333" stroke-width="2" fill="#fff"/><use xlink:href="#al" transform="matrix(1,0,0,1,748,2160) translate(41 16.6)"/><use xlink:href="#f" transform="matrix(1,0,0,1,752,2194) translate(32.075 32.6)"/><use xlink:href="#g" transform="matrix(1,0,0,1,752,2194) translate(104.025 32.6)"/><use xlink:href="#am" transform="matrix(1,0,0,1,752,2194) translate(126.925 32.6)"/><path d="M980 1339.27h220l20 20v80H980z" stroke="#333" stroke-width="2" fill="#fff"/><path d="M1200 1340.22v19.05h19.05" stroke="#333" stroke-width="2" fill="#fff"/><use xlink:href="#an" transform="matrix(1,0,0,1,985,1344.2656948333029) translate(30.099999999999994 48.6)"/><use xlink:href="#D" transform="matrix(1,0,0,1,985,1344.2656948333029) translate(170.9 48.6)"/><path d="M620 961.75V1018a12 12 0 0 0 12 12h90.62" stroke="#333" fill="none"/><path d="M620.5 961.76h-1v-.5h1z" stroke="#333" stroke-width=".05" fill="#333"/><path d="M737.38 1030l-14.26 4.63v-9.27z" stroke="#333" fill="#333"/><path d="M620 961.75v176a12 12 0 0 0 12 12h90.62" stroke="#333" fill="none"/><path d="M620.5 961.76h-1v-.5h1z" stroke="#333" stroke-width=".05" fill="#333"/><path d="M737.38 1149.76l-14.26 4.63v-9.28z" stroke="#333" fill="#333"/><path d="M620 961.75v295.76a12 12 0 0 0 12 12h90.62M620 961.76v-.5" stroke="#333" fill="none"/><path d="M737.38 1269.5l-14.26 4.65v-9.28z" stroke="#333" fill="#333"/><path d="M620 961.75V1498a12 12 0 0 0 12 12h90.62" stroke="#333" fill="none"/><path d="M620.5 961.76h-1v-.5h1z" stroke="#333" stroke-width=".05" fill="#333"/><path d="M737.38 1510l-14.26 4.63v-9.27z" stroke="#333" fill="#333"/><path d="M860 1321v56.27a12 12 0 0 0 12 12h90.62" stroke="#333" fill="none"/><path d="M860.5 1321.02h-1v-.5h1z" stroke="#333" stroke-width=".05" fill="#333"/><path d="M977.38 1389.27l-14.26 4.63v-9.27z" stroke="#333" fill="#333"/><path d="M980 1580h220l20 20v80H980z" stroke="#333" stroke-width="2" fill="#fff"/><path d="M1200 1580.95V1600h19.05" stroke="#333" stroke-width="2" fill="#fff"/><g><use xlink:href="#ao" transform="matrix(1,0,0,1,985,1585) translate(44.07499999999999 48.6)"/><use xlink:href="#D" transform="matrix(1,0,0,1,985,1585) translate(156.925 48.6)"/></g><g transform="matrix(1,0,0,1,985,1585)"><a xlink:href="http://gamerules.txt" target="_blank"><path class="lucid-link lucid-hotspot lucid-overlay-hotspot" fill-opacity="0" d="M44.07 34.2h107.85v21.6H44.07z"/></a></g><path d="M980 2040h220l20 20v80H980z" stroke="#333" stroke-width="2" fill="#fff"/><path d="M1200 2040.95V2060h19.05" stroke="#333" stroke-width="2" fill="#fff"/><g><use xlink:href="#ap" transform="matrix(1,0,0,1,985,2045) translate(42.55 48.6)"/><use xlink:href="#D" transform="matrix(1,0,0,1,985,2045) translate(158.45 48.6)"/></g><path d="M480 60h260v60H480z" stroke="#000" stroke-opacity="0" stroke-width="2" fill="#fff" fill-opacity="0"/><g><use xlink:href="#aq" transform="matrix(1,0,0,1,485,65) translate(7.674999999999983 28.6)"/><use xlink:href="#l" transform="matrix(1,0,0,1,485,65) translate(78.57499999999999 28.6)"/><use xlink:href="#ar" transform="matrix(1,0,0,1,485,65) translate(108.57499999999999 28.6)"/><use xlink:href="#as" transform="matrix(1,0,0,1,485,65) translate(198.375 28.6)"/></g><path d="M517.38 190H598a12 12 0 0 0 12-12v-57.5" stroke="#333" fill="none"/><path d="M502.62 190l14.26-4.63v9.26z" stroke="#333" fill="#333"/><path d="M610.5 120.5h-1v-.5h1z" stroke="#333" stroke-width=".05" fill="#333"/><path d="M1131 1726h89v74H980v-100h144zm-151 0h151" stroke="#333" stroke-width="2" fill="#fff"/><g><use xlink:href="#at" transform="matrix(1,0,0,1,988,1700) translate(31 16.6)"/></g><g><use xlink:href="#au" transform="matrix(1,0,0,1,992,1734) translate(12.099999999999994 14.4)"/><use xlink:href="#ah" transform="matrix(1,0,0,1,992,1734) translate(62 14.4)"/><use xlink:href="#av" transform="matrix(1,0,0,1,992,1734) translate(82 14.4)"/><use xlink:href="#aw" transform="matrix(1,0,0,1,992,1734) translate(130.95 14.4)"/><use xlink:href="#ax" transform="matrix(1,0,0,1,992,1734) translate(0.6249999999999858 36)"/><use xlink:href="#ay" transform="matrix(1,0,0,1,992,1734) translate(54.52499999999999 36)"/><use xlink:href="#ah" transform="matrix(1,0,0,1,992,1734) translate(92.475 36)"/><use xlink:href="#az" transform="matrix(1,0,0,1,992,1734) translate(112.475 36)"/><use xlink:href="#aA" transform="matrix(1,0,0,1,992,1734) translate(165.47500000000002 36)"/><use xlink:href="#aB" transform="matrix(1,0,0,1,992,1734) translate(72.025 57.6)"/></g><path d="M860 1561.5V1738a12 12 0 0 0 12 12h90.62" stroke="#333" fill="none"/><path d="M860.5 1561.5h-1v-.5h1z" stroke="#333" stroke-width=".05" fill="#333"/><path d="M977.38 1750l-14.26 4.63v-9.27z" stroke="#333" fill="#333"/><path d="M1131 1846h89v74H980v-100h144zm-151 0h151" stroke="#333" stroke-width="2" fill="#fff"/><g><use xlink:href="#aC" transform="matrix(1,0,0,1,988,1820) translate(35.525 16.6)"/></g><g><use xlink:href="#au" transform="matrix(1,0,0,1,992,1854) translate(22.599999999999994 14.4)"/><use xlink:href="#aD" transform="matrix(1,0,0,1,992,1854) translate(72.5 14.4)"/><use xlink:href="#aE" transform="matrix(1,0,0,1,992,1854) translate(144.45 14.4)"/><use xlink:href="#aF" transform="matrix(1,0,0,1,992,1854) translate(9.625 36)"/><use xlink:href="#aG" transform="matrix(1,0,0,1,992,1854) translate(68.575 36)"/><use xlink:href="#P" transform="matrix(1,0,0,1,992,1854) translate(97.525 36)"/><use xlink:href="#ah" transform="matrix(1,0,0,1,992,1854) translate(134.425 36)"/><use xlink:href="#aH" transform="matrix(1,0,0,1,992,1854) translate(154.425 36)"/><use xlink:href="#aI" transform="matrix(1,0,0,1,992,1854) translate(197.425 36)"/><use xlink:href="#aJ" transform="matrix(1,0,0,1,992,1854) translate(16.599999999999994 57.6)"/><use xlink:href="#ax" transform="matrix(1,0,0,1,992,1854) translate(41.599999999999994 57.6)"/><use xlink:href="#ay" transform="matrix(1,0,0,1,992,1854) translate(95.5 57.6)"/><use xlink:href="#aK" transform="matrix(1,0,0,1,992,1854) translate(133.45 57.6)"/><use xlink:href="#aL" transform="matrix(1,0,0,1,992,1854) translate(162.45000000000002 57.6)"/></g><path d="M860 1561.5V1858a12 12 0 0 0 12 12h90.62" stroke="#333" fill="none"/><path d="M860.5 1561.5h-1v-.5h1z" stroke="#333" stroke-width=".05" fill="#333"/><path d="M977.38 1870l-14.26 4.63v-9.27z" stroke="#333" fill="#333"/><path d="M860 1561.5v56.5a12 12 0 0 0 12 12h90.62" stroke="#333" fill="none"/><path d="M860.5 1561.5h-1v-.5h1z" stroke="#333" stroke-width=".05" fill="#333"/><path d="M977.38 1630l-14.26 4.63v-9.27z" stroke="#333" fill="#333"/><path d="M620 961.75V1958a12 12 0 0 0 12 12h90.62" stroke="#333" fill="none"/><path d="M620.5 961.76h-1v-.5h1z" stroke="#333" stroke-width=".05" fill="#333"/><path d="M737.38 1970l-14.26 4.63v-9.27z" stroke="#333" fill="#333"/><path d="M860 2021.5v56.5a12 12 0 0 0 12 12h90.62" stroke="#333" fill="none"/><path d="M860.5 2021.5h-1v-.5h1z" stroke="#333" stroke-width=".05" fill="#333"/><path d="M977.38 2090l-14.26 4.64v-9.28z" stroke="#333" fill="#333"/><path d="M620 961.75V2198a12 12 0 0 0 12 12h90.62" stroke="#333" fill="none"/><path d="M620.5 961.76h-1v-.5h1z" stroke="#333" stroke-width=".05" fill="#333"/><path d="M737.38 2210l-14.26 4.64v-9.28z" stroke="#333" fill="#333"/><path d="M980 2280h220l20 20v80H980z" stroke="#333" stroke-width="2" fill="#fff"/><path d="M1200 2280.95V2300h19.05" stroke="#333" stroke-width="2" fill="#fff"/><g><use xlink:href="#aM" transform="matrix(1,0,0,1,985,2285) translate(18.625 48.6)"/><use xlink:href="#D" transform="matrix(1,0,0,1,985,2285) translate(182.375 48.6)"/></g><path d="M860 2261.5v56.5a12 12 0 0 0 12 12h90.62" stroke="#333" fill="none"/><path d="M860.5 2261.5h-1v-.5h1z" stroke="#333" stroke-width=".05" fill="#333"/><path d="M977.38 2330l-14.26 4.64v-9.28z" stroke="#333" fill="#333"/><path d="M100 780.12h240v60H100z" stroke="#000" stroke-opacity="0" stroke-width="2" fill="#fff" fill-opacity="0"/><g><use xlink:href="#aN" transform="matrix(1,0,0,1,105,785.1223841944495) translate(7.724999999999994 17.799999999999997)"/><use xlink:href="#y" transform="matrix(1,0,0,1,105,785.1223841944495) translate(30.624999999999993 17.799999999999997)"/><use xlink:href="#aO" transform="matrix(1,0,0,1,105,785.1223841944495) translate(88.975 17.799999999999997)"/><use xlink:href="#aP" transform="matrix(1,0,0,1,105,785.1223841944495) translate(119.925 17.799999999999997)"/><use xlink:href="#aQ" transform="matrix(1,0,0,1,105,785.1223841944495) translate(180.275 17.799999999999997)"/><use xlink:href="#aR" transform="matrix(1,0,0,1,105,785.1223841944495) translate(40.07499999999999 39.4)"/><use xlink:href="#aS" transform="matrix(1,0,0,1,105,785.1223841944495) translate(98.02499999999999 39.4)"/><use xlink:href="#aO" transform="matrix(1,0,0,1,105,785.1223841944495) translate(123.02499999999999 39.4)"/><use xlink:href="#aT" transform="matrix(1,0,0,1,105,785.1223841944495) translate(153.975 39.4)"/></g><path d="M220 779.62v-17.06a12 12 0 0 1 12-12h74.8a12 12 0 0 0 12-12v-1.18" stroke="#333" fill="none"/><path d="M220.5 780.12h-1v-.5h1z" stroke="#333" stroke-width=".05" fill="#333"/><path d="M318.8 722.62l4.63 14.26h-9.26z" stroke="#333" fill="#333"/><path d="M240 1020h380v74.8H240z" stroke="#000" stroke-opacity="0" stroke-width="2" fill="#fff" fill-opacity="0"/><g><use xlink:href="#aU" transform="matrix(1,0,0,1,245,1025) translate(18.650000000000006 25.299999999999997)"/><use xlink:href="#aV" transform="matrix(1,0,0,1,245,1025) translate(82.60000000000001 25.299999999999997)"/><use xlink:href="#u" transform="matrix(1,0,0,1,245,1025) translate(101.55000000000001 25.299999999999997)"/><use xlink:href="#aW" transform="matrix(1,0,0,1,245,1025) translate(134.5 25.299999999999997)"/><use xlink:href="#aR" transform="matrix(1,0,0,1,245,1025) translate(184.4 25.299999999999997)"/><use xlink:href="#aS" transform="matrix(1,0,0,1,245,1025) translate(242.35 25.299999999999997)"/><use xlink:href="#aX" transform="matrix(1,0,0,1,245,1025) translate(267.35 25.299999999999997)"/><use xlink:href="#p" transform="matrix(1,0,0,1,245,1025) translate(336.35 25.299999999999997)"/><use xlink:href="#aY" transform="matrix(1,0,0,1,245,1025) translate(43.17499999999998 46.9)"/><use xlink:href="#aZ" transform="matrix(1,0,0,1,245,1025) translate(91.12499999999999 46.9)"/><use xlink:href="#ba" transform="matrix(1,0,0,1,245,1025) translate(125.12499999999999 46.9)"/><use xlink:href="#bb" transform="matrix(1,0,0,1,245,1025) translate(198.025 46.9)"/><use xlink:href="#bc" transform="matrix(1,0,0,1,245,1025) translate(279.975 46.9)"/></g><path d="M430 1019.5v-16.88a12 12 0 0 1 12-12h104.8a12 12 0 0 0 12-12v-1" stroke="#333" fill="none"/><path d="M430.5 1020h-1v-.5h1z" stroke="#333" stroke-width=".05" fill="#333"/><path d="M558.8 962.86l4.63 14.27h-9.26z" stroke="#333" fill="#333"/><path d="M540 340h240v60H540z" stroke="#000" stroke-opacity="0" stroke-width="2" fill="#fff" fill-opacity="0"/><g><use xlink:href="#bd" transform="matrix(1,0,0,1,545,345) translate(36.125 28.6)"/><use xlink:href="#be" transform="matrix(1,0,0,1,545,345) translate(76.075 28.6)"/><use xlink:href="#w" transform="matrix(1,0,0,1,545,345) translate(139.97500000000002 28.6)"/><use xlink:href="#aT" transform="matrix(1,0,0,1,545,345) translate(157.925 28.6)"/></g><path d="M660 400.5V418a12 12 0 0 1-12 12H517.38" stroke="#333" fill="none"/><path d="M660.5 400.5h-1v-.5h1z" stroke="#333" stroke-width=".05" fill="#333"/><path d="M502.62 430l14.26-4.63v9.26z" stroke="#333" fill="#333"/><defs><path fill="#333" d="M100-194c62-1 85 37 85 99 1 63-27 99-86 99S16-35 15-95c0-66 28-99 85-99zM99-20c44 1 53-31 53-75 0-43-8-75-51-75s-53 32-53 75 10 74 51 75" id="bf"/><path fill="#333" d="M106-169C34-169 62-67 57 0H25v-261h32l-1 103c12-21 28-36 61-36 89 0 53 116 60 194h-32v-121c2-32-8-49-39-48" id="bg"/><path fill="#333" d="M59-47c-2 24 18 29 38 22v24C64 9 27 4 27-40v-127H5v-23h24l9-43h21v43h35v23H59v120" id="bh"/><path fill="#333" d="M100-194c63 0 86 42 84 106H49c0 40 14 67 53 68 26 1 43-12 49-29l28 8c-11 28-37 45-77 45C44 4 14-33 15-96c1-61 26-98 85-98zm52 81c6-60-76-77-97-28-3 7-6 17-6 28h103" id="bi"/><g id="a"><use transform="matrix(0.05,0,0,0.05,0,0)" xlink:href="#bf"/><use transform="matrix(0.05,0,0,0.05,10,0)" xlink:href="#bg"/><use transform="matrix(0.05,0,0,0.05,20,0)" xlink:href="#bh"/><use transform="matrix(0.05,0,0,0.05,25,0)" xlink:href="#bi"/></g><path fill="#333" d="M210-169c-67 3-38 105-44 169h-31v-121c0-29-5-50-35-48C34-165 62-65 56 0H25l-1-190h30c1 10-1 24 2 32 10-44 99-50 107 0 11-21 27-35 58-36 85-2 47 119 55 194h-31v-121c0-29-5-49-35-48" id="bj"/><path fill="#333" d="M141-36C126-15 110 5 73 4 37 3 15-17 15-53c-1-64 63-63 125-63 3-35-9-54-41-54-24 1-41 7-42 31l-33-3c5-37 33-52 76-52 45 0 72 20 72 64v82c-1 20 7 32 28 27v20c-31 9-61-2-59-35zM48-53c0 20 12 33 32 33 41-3 63-29 60-74-43 2-92-5-92 41" id="bk"/><path fill="#333" d="M135-143c-3-34-86-38-87 0 15 53 115 12 119 90S17 21 10-45l28-5c4 36 97 45 98 0-10-56-113-15-118-90-4-57 82-63 122-42 12 7 21 19 24 35" id="bl"/><path fill="#333" d="M114-163C36-179 61-72 57 0H25l-1-190h30c1 12-1 29 2 39 6-27 23-49 58-41v29" id="bm"/><g id="b"><use transform="matrix(0.05,0,0,0.05,0,0)" xlink:href="#bj"/><use transform="matrix(0.05,0,0,0.05,14.950000000000001,0)" xlink:href="#bk"/><use transform="matrix(0.05,0,0,0.05,24.950000000000003,0)" xlink:href="#bl"/><use transform="matrix(0.05,0,0,0.05,33.95,0)" xlink:href="#bh"/><use transform="matrix(0.05,0,0,0.05,38.95,0)" xlink:href="#bi"/><use transform="matrix(0.05,0,0,0.05,48.95,0)" xlink:href="#bm"/></g><path fill="#333" d="M143 4C61 4 22-44 18-125c-5-107 100-154 193-111 17 8 29 25 37 43l-32 9c-13-25-37-40-76-40-61 0-88 39-88 99 0 61 29 100 91 101 35 0 62-11 79-27v-45h-74v-28h105v86C228-13 192 4 143 4" id="bn"/><path fill="#333" d="M24-231v-30h32v30H24zM24 0v-190h32V0H24" id="bo"/><path fill="#333" d="M84 4C-5 8 30-112 23-190h32v120c0 31 7 50 39 49 72-2 45-101 50-169h31l1 190h-30c-1-10 1-25-2-33-11 22-28 36-60 37" id="bp"/><path fill="#333" d="M115-194c53 0 69 39 70 98 0 66-23 100-70 100C84 3 66-7 56-30L54 0H23l1-261h32v101c10-23 28-34 59-34zm-8 174c40 0 45-34 45-75 0-40-5-75-45-74-42 0-51 32-51 76 0 43 10 73 51 73" id="bq"/><g id="c"><use transform="matrix(0.05,0,0,0.05,0,0)" xlink:href="#bn"/><use transform="matrix(0.05,0,0,0.05,14,0)" xlink:href="#bo"/><use transform="matrix(0.05,0,0,0.05,17.95,0)" xlink:href="#bh"/><use transform="matrix(0.05,0,0,0.05,22.95,0)" xlink:href="#bg"/><use transform="matrix(0.05,0,0,0.05,32.95,0)" xlink:href="#bp"/><use transform="matrix(0.05,0,0,0.05,42.95,0)" xlink:href="#bq"/></g><path fill="#333" d="M115-194c55 1 70 41 70 98S169 2 115 4C84 4 66-9 55-30l1 105H24l-1-265h31l2 30c10-21 28-34 59-34zm-8 174c40 0 45-34 45-75s-6-73-45-74c-42 0-51 32-51 76 0 43 10 73 51 73" id="br"/><path fill="#333" d="M179-190L93 31C79 59 56 82 12 73V49c39 6 53-20 64-50L1-190h34L92-34l54-156h33" id="bs"/><g id="d"><use transform="matrix(0.05,0,0,0.05,0,0)" xlink:href="#bm"/><use transform="matrix(0.05,0,0,0.05,5.95,0)" xlink:href="#bi"/><use transform="matrix(0.05,0,0,0.05,15.949999999999998,0)" xlink:href="#br"/><use transform="matrix(0.05,0,0,0.05,25.950000000000003,0)" xlink:href="#bf"/><use transform="matrix(0.05,0,0,0.05,35.95,0)" xlink:href="#bl"/><use transform="matrix(0.05,0,0,0.05,44.95,0)" xlink:href="#bo"/><use transform="matrix(0.05,0,0,0.05,48.900000000000006,0)" xlink:href="#bh"/><use transform="matrix(0.05,0,0,0.05,53.900000000000006,0)" xlink:href="#bf"/><use transform="matrix(0.05,0,0,0.05,63.900000000000006,0)" xlink:href="#bm"/><use transform="matrix(0.05,0,0,0.05,69.85000000000001,0)" xlink:href="#bs"/></g><path fill="#333" d="M24 0v-261h32V0H24" id="bt"/><path fill="#333" d="M143 0L79-87 56-68V0H24v-261h32v163l83-92h37l-77 82L181 0h-38" id="bu"/><g id="e"><use transform="matrix(0.05,0,0,0.05,0,0)" xlink:href="#bt"/><use transform="matrix(0.05,0,0,0.05,3.95,0)" xlink:href="#bk"/><use transform="matrix(0.05,0,0,0.05,13.949999999999998,0)" xlink:href="#bl"/><use transform="matrix(0.05,0,0,0.05,22.95,0)" xlink:href="#bu"/><use transform="matrix(0.05,0,0,0.05,31.950000000000003,0)" xlink:href="#bk"/><use transform="matrix(0.05,0,0,0.05,41.95,0)" xlink:href="#bm"/><use transform="matrix(0.05,0,0,0.05,47.900000000000006,0)" xlink:href="#bo"/><use transform="matrix(0.05,0,0,0.05,51.85,0)" xlink:href="#bh"/></g><path fill="#333" d="M96-169c-40 0-48 33-48 73s9 75 48 75c24 0 41-14 43-38l32 2c-6 37-31 61-74 61-59 0-76-41-82-99-10-93 101-131 147-64 4 7 5 14 7 22l-32 3c-4-21-16-35-41-35" id="bv"/><path fill="#333" d="M117-194c89-4 53 116 60 194h-32v-121c0-31-8-49-39-48C34-167 62-67 57 0H25l-1-190h30c1 10-1 24 2 32 11-22 29-35 61-36" id="bw"/><g id="f"><use transform="matrix(0.05,0,0,0.05,0,0)" xlink:href="#bv"/><use transform="matrix(0.05,0,0,0.05,9,0)" xlink:href="#bf"/><use transform="matrix(0.05,0,0,0.05,19,0)" xlink:href="#bw"/><use transform="matrix(0.05,0,0,0.05,29,0)" xlink:href="#bh"/><use transform="matrix(0.05,0,0,0.05,34,0)" xlink:href="#bk"/><use transform="matrix(0.05,0,0,0.05,44,0)" xlink:href="#bo"/><use transform="matrix(0.05,0,0,0.05,47.95,0)" xlink:href="#bw"/><use transform="matrix(0.05,0,0,0.05,57.95,0)" xlink:href="#bl"/></g><g id="g"><use transform="matrix(0.05,0,0,0.05,0,0)" xlink:href="#bk"/><use transform="matrix(0.05,0,0,0.05,10,0)" xlink:href="#bt"/><use transform="matrix(0.05,0,0,0.05,13.949999999999998,0)" xlink:href="#bt"/></g><path fill="#333" d="M206 0h-36l-40-164L89 0H53L-1-190h32L70-26l43-164h34l41 164 42-164h31" id="bx"/><g id="h"><use transform="matrix(0.05,0,0,0.05,0,0)" xlink:href="#bx"/><use transform="matrix(0.05,0,0,0.05,12.950000000000001,0)" xlink:href="#bi"/><use transform="matrix(0.05,0,0,0.05,22.950000000000003,0)" xlink:href="#bi"/><use transform="matrix(0.05,0,0,0.05,32.95,0)" xlink:href="#bu"/><use transform="matrix(0.05,0,0,0.05,41.95,0)" xlink:href="#bt"/><use transform="matrix(0.05,0,0,0.05,45.900000000000006,0)" xlink:href="#bs"/></g><g id="i"><use transform="matrix(0.05,0,0,0.05,0,0)" xlink:href="#bv"/><use transform="matrix(0.05,0,0,0.05,9,0)" xlink:href="#bf"/><use transform="matrix(0.05,0,0,0.05,19,0)" xlink:href="#bp"/><use transform="matrix(0.05,0,0,0.05,29,0)" xlink:href="#bm"/><use transform="matrix(0.05,0,0,0.05,34.95,0)" xlink:href="#bl"/><use transform="matrix(0.05,0,0,0.05,43.95,0)" xlink:href="#bi"/></g><path fill="#333" d="M141 0L90-78 38 0H4l68-98-65-92h35l48 74 47-74h35l-64 92 68 98h-35" id="by"/><g id="j"><use transform="matrix(0.05,0,0,0.05,0,0)" xlink:href="#bi"/><use transform="matrix(0.05,0,0,0.05,10,0)" xlink:href="#by"/><use transform="matrix(0.05,0,0,0.05,19,0)" xlink:href="#bi"/><use transform="matrix(0.05,0,0,0.05,29,0)" xlink:href="#bm"/><use transform="matrix(0.05,0,0,0.05,34.95,0)" xlink:href="#bv"/><use transform="matrix(0.05,0,0,0.05,43.95,0)" xlink:href="#bo"/><use transform="matrix(0.05,0,0,0.05,47.900000000000006,0)" xlink:href="#bl"/><use transform="matrix(0.05,0,0,0.05,56.900000000000006,0)" xlink:href="#bi"/><use transform="matrix(0.05,0,0,0.05,66.9,0)" xlink:href="#bl"/></g><path fill="#333" d="M85-194c31 0 48 13 60 33l-1-100h32l1 261h-30c-2-10 0-23-3-31C134-8 116 4 85 4 32 4 16-35 15-94c0-66 23-100 70-100zm9 24c-40 0-46 34-46 75 0 40 6 74 45 74 42 0 51-32 51-76 0-42-9-74-50-73" id="bz"/><g id="k"><use transform="matrix(0.05,0,0,0.05,0,0)" xlink:href="#bz"/><use transform="matrix(0.05,0,0,0.05,10,0)" xlink:href="#bf"/><use transform="matrix(0.05,0,0,0.05,20,0)" xlink:href="#bv"/><use transform="matrix(0.05,0,0,0.05,29,0)" xlink:href="#bp"/><use transform="matrix(0.05,0,0,0.05,39,0)" xlink:href="#bj"/><use transform="matrix(0.05,0,0,0.05,53.95,0)" xlink:href="#bi"/><use transform="matrix(0.05,0,0,0.05,63.95,0)" xlink:href="#bw"/><use transform="matrix(0.05,0,0,0.05,73.95,0)" xlink:href="#bh"/><use transform="matrix(0.05,0,0,0.05,78.95,0)" xlink:href="#bk"/><use transform="matrix(0.05,0,0,0.05,88.95,0)" xlink:href="#bh"/><use transform="matrix(0.05,0,0,0.05,93.95,0)" xlink:href="#bo"/><use transform="matrix(0.05,0,0,0.05,97.9,0)" xlink:href="#bf"/><use transform="matrix(0.05,0,0,0.05,107.9,0)" xlink:href="#bw"/></g><g id="l"><use transform="matrix(0.05,0,0,0.05,0,0)" xlink:href="#bh"/><use transform="matrix(0.05,0,0,0.05,5,0)" xlink:href="#bg"/><use transform="matrix(0.05,0,0,0.05,15,0)" xlink:href="#bi"/></g><path fill="#333" d="M108 0H70L1-190h34L89-25l56-165h34" id="bA"/><g id="m"><use transform="matrix(0.05,0,0,0.05,0,0)" xlink:href="#bm"/><use transform="matrix(0.05,0,0,0.05,5.95,0)" xlink:href="#bi"/><use transform="matrix(0.05,0,0,0.05,15.949999999999998,0)" xlink:href="#bt"/><use transform="matrix(0.05,0,0,0.05,19.9,0)" xlink:href="#bi"/><use transform="matrix(0.05,0,0,0.05,29.899999999999995,0)" xlink:href="#bA"/><use transform="matrix(0.05,0,0,0.05,38.9,0)" xlink:href="#bk"/><use transform="matrix(0.05,0,0,0.05,48.9,0)" xlink:href="#bw"/><use transform="matrix(0.05,0,0,0.05,58.900000000000006,0)" xlink:href="#bh"/></g><g id="n"><use transform="matrix(0.05,0,0,0.05,0,0)" xlink:href="#bz"/><use transform="matrix(0.05,0,0,0.05,10,0)" xlink:href="#bf"/><use transform="matrix(0.05,0,0,0.05,20,0)" xlink:href="#bv"/><use transform="matrix(0.05,0,0,0.05,29,0)" xlink:href="#bp"/><use transform="matrix(0.05,0,0,0.05,39,0)" xlink:href="#bj"/><use transform="matrix(0.05,0,0,0.05,53.95,0)" xlink:href="#bi"/><use transform="matrix(0.05,0,0,0.05,63.95,0)" xlink:href="#bw"/><use transform="matrix(0.05,0,0,0.05,73.95,0)" xlink:href="#bh"/><use transform="matrix(0.05,0,0,0.05,78.95,0)" xlink:href="#bk"/><use transform="matrix(0.05,0,0,0.05,88.95,0)" xlink:href="#bh"/><use transform="matrix(0.05,0,0,0.05,93.95,0)" xlink:href="#bo"/><use transform="matrix(0.05,0,0,0.05,97.9,0)" xlink:href="#bf"/><use transform="matrix(0.05,0,0,0.05,107.9,0)" xlink:href="#bw"/></g><g id="o"><use transform="matrix(0.05,0,0,0.05,0,0)" xlink:href="#bm"/><use transform="matrix(0.05,0,0,0.05,5.95,0)" xlink:href="#bi"/><use transform="matrix(0.05,0,0,0.05,15.949999999999998,0)" xlink:href="#bt"/><use transform="matrix(0.05,0,0,0.05,19.9,0)" xlink:href="#bk"/><use transform="matrix(0.05,0,0,0.05,29.899999999999995,0)" xlink:href="#bh"/><use transform="matrix(0.05,0,0,0.05,34.9,0)" xlink:href="#bi"/><use transform="matrix(0.05,0,0,0.05,44.9,0)" xlink:href="#bz"/></g><g id="p"><use transform="matrix(0.05,0,0,0.05,0,0)" xlink:href="#bh"/><use transform="matrix(0.05,0,0,0.05,5,0)" xlink:href="#bf"/></g><g id="q"><use transform="matrix(0.05,0,0,0.05,0,0)" xlink:href="#bv"/><use transform="matrix(0.05,0,0,0.05,9,0)" xlink:href="#bf"/><use transform="matrix(0.05,0,0,0.05,19,0)" xlink:href="#bp"/><use transform="matrix(0.05,0,0,0.05,29,0)" xlink:href="#bm"/><use transform="matrix(0.05,0,0,0.05,34.95,0)" xlink:href="#bl"/><use transform="matrix(0.05,0,0,0.05,43.95,0)" xlink:href="#bi"/></g><path fill="#333" d="M24-231v-30h32v30H24zM-9 49c24 4 33-6 33-30v-209h32V24c2 40-23 58-65 49V49" id="bB"/><g id="r"><use transform="matrix(0.05,0,0,0.05,0,0)" xlink:href="#br"/><use transform="matrix(0.05,0,0,0.05,10,0)" xlink:href="#bm"/><use transform="matrix(0.05,0,0,0.05,15.949999999999998,0)" xlink:href="#bf"/><use transform="matrix(0.05,0,0,0.05,25.950000000000003,0)" xlink:href="#bB"/><use transform="matrix(0.05,0,0,0.05,29.899999999999995,0)" xlink:href="#bi"/><use transform="matrix(0.05,0,0,0.05,39.9,0)" xlink:href="#bv"/><use transform="matrix(0.05,0,0,0.05,48.9,0)" xlink:href="#bh"/></g><path fill="#333" d="M101-234c-31-9-42 10-38 44h38v23H63V0H32v-167H5v-23h27c-7-52 17-82 69-68v24" id="bC"/><path fill="#333" d="M177-190C167-65 218 103 67 71c-23-6-38-20-44-43l32-5c15 47 100 32 89-28v-30C133-14 115 1 83 1 29 1 15-40 15-95c0-56 16-97 71-98 29-1 48 16 59 35 1-10 0-23 2-32h30zM94-22c36 0 50-32 50-73 0-42-14-75-50-75-39 0-46 34-46 75s6 73 46 73" id="bD"/><g id="s"><use transform="matrix(0.05,0,0,0.05,0,0)" xlink:href="#bC"/><use transform="matrix(0.05,0,0,0.05,5,0)" xlink:href="#bt"/><use transform="matrix(0.05,0,0,0.05,8.95,0)" xlink:href="#bk"/><use transform="matrix(0.05,0,0,0.05,18.95,0)" xlink:href="#bD"/><use transform="matrix(0.05,0,0,0.05,28.950000000000003,0)" xlink:href="#bD"/><use transform="matrix(0.05,0,0,0.05,38.95,0)" xlink:href="#bk"/><use transform="matrix(0.05,0,0,0.05,48.95,0)" xlink:href="#bj"/><use transform="matrix(0.05,0,0,0.05,63.900000000000006,0)" xlink:href="#bi"/></g><path fill="#333" d="M68-38c1 34 0 65-14 84H32c9-13 17-26 17-46H33v-38h35" id="bE"/><g id="t"><use transform="matrix(0.05,0,0,0.05,0,0)" xlink:href="#br"/><use transform="matrix(0.05,0,0,0.05,10,0)" xlink:href="#bm"/><use transform="matrix(0.05,0,0,0.05,15.949999999999998,0)" xlink:href="#bf"/><use transform="matrix(0.05,0,0,0.05,25.950000000000003,0)" xlink:href="#bB"/><use transform="matrix(0.05,0,0,0.05,29.899999999999995,0)" xlink:href="#bi"/><use transform="matrix(0.05,0,0,0.05,39.9,0)" xlink:href="#bv"/><use transform="matrix(0.05,0,0,0.05,48.9,0)" xlink:href="#bh"/><use transform="matrix(0.05,0,0,0.05,53.900000000000006,0)" xlink:href="#bE"/></g><g id="u"><use transform="matrix(0.05,0,0,0.05,0,0)" xlink:href="#bh"/><use transform="matrix(0.05,0,0,0.05,5,0)" xlink:href="#bg"/><use transform="matrix(0.05,0,0,0.05,15,0)" xlink:href="#bo"/><use transform="matrix(0.05,0,0,0.05,18.95,0)" xlink:href="#bl"/></g><g id="v"><use transform="matrix(0.05,0,0,0.05,0,0)" xlink:href="#bk"/><use transform="matrix(0.05,0,0,0.05,10,0)" xlink:href="#bt"/><use transform="matrix(0.05,0,0,0.05,13.949999999999998,0)" xlink:href="#bl"/><use transform="matrix(0.05,0,0,0.05,22.95,0)" xlink:href="#bf"/></g><g id="w"><use transform="matrix(0.05,0,0,0.05,0,0)" xlink:href="#bo"/><use transform="matrix(0.05,0,0,0.05,3.95,0)" xlink:href="#bl"/></g><g id="x"><use transform="matrix(0.05,0,0,0.05,0,0)" xlink:href="#bh"/><use transform="matrix(0.05,0,0,0.05,5,0)" xlink:href="#bg"/><use transform="matrix(0.05,0,0,0.05,15,0)" xlink:href="#bi"/></g><path fill="#333" d="M47-170H22l-4-78h33" id="bF"/><g id="y"><use transform="matrix(0.05,0,0,0.05,0,0)" xlink:href="#bF"/><use transform="matrix(0.05,0,0,0.05,3.4000000000000004,0)" xlink:href="#br"/><use transform="matrix(0.05,0,0,0.05,13.4,0)" xlink:href="#bf"/><use transform="matrix(0.05,0,0,0.05,23.4,0)" xlink:href="#bi"/><use transform="matrix(0.05,0,0,0.05,33.4,0)" xlink:href="#bh"/><use transform="matrix(0.05,0,0,0.05,38.4,0)" xlink:href="#bm"/><use transform="matrix(0.05,0,0,0.05,44.35,0)" xlink:href="#bs"/></g><g id="z"><use transform="matrix(0.05,0,0,0.05,0,0)" xlink:href="#br"/><use transform="matrix(0.05,0,0,0.05,10,0)" xlink:href="#bm"/><use transform="matrix(0.05,0,0,0.05,15.949999999999998,0)" xlink:href="#bf"/><use transform="matrix(0.05,0,0,0.05,25.950000000000003,0)" xlink:href="#bB"/><use transform="matrix(0.05,0,0,0.05,29.899999999999995,0)" xlink:href="#bi"/><use transform="matrix(0.05,0,0,0.05,39.9,0)" xlink:href="#bv"/><use transform="matrix(0.05,0,0,0.05,48.9,0)" xlink:href="#bh"/></g><g id="A"><use transform="matrix(0.05,0,0,0.05,0,0)" xlink:href="#bC"/><use transform="matrix(0.05,0,0,0.05,5,0)" xlink:href="#bf"/><use transform="matrix(0.05,0,0,0.05,15,0)" xlink:href="#bt"/><use transform="matrix(0.05,0,0,0.05,18.95,0)" xlink:href="#bz"/><use transform="matrix(0.05,0,0,0.05,28.950000000000003,0)" xlink:href="#bi"/><use transform="matrix(0.05,0,0,0.05,38.95,0)" xlink:href="#bm"/><use transform="matrix(0.05,0,0,0.05,44.900000000000006,0)" xlink:href="#bF"/></g><path fill="#333" d="M233-177c-1 41-23 64-60 70L243 0h-38l-65-103H63V0H30v-248c88 3 205-21 203 71zM63-129c60-2 137 13 137-47 0-61-80-42-137-45v92" id="bG"/><path fill="#333" d="M30 0v-248h187v28H63v79h144v27H63v87h162V0H30" id="bH"/><path fill="#333" d="M205 0l-28-72H64L36 0H1l101-248h38L239 0h-34zm-38-99l-47-123c-12 45-31 82-46 123h93" id="bI"/><path fill="#333" d="M30-248c118-7 216 8 213 122C240-48 200 0 122 0H30v-248zM63-27c89 8 146-16 146-99s-60-101-146-95v194" id="bJ"/><path fill="#333" d="M240 0l2-218c-23 76-54 145-80 218h-23L58-218 59 0H30v-248h44l77 211c21-75 51-140 76-211h43V0h-30" id="bK"/><path fill="#333" d="M33 0v-38h34V0H33" id="bL"/><g id="B"><use transform="matrix(0.05,0,0,0.05,0,0)" xlink:href="#bG"/><use transform="matrix(0.05,0,0,0.05,12.950000000000001,0)" xlink:href="#bH"/><use transform="matrix(0.05,0,0,0.05,24.950000000000003,0)" xlink:href="#bI"/><use transform="matrix(0.05,0,0,0.05,36.95,0)" xlink:href="#bJ"/><use transform="matrix(0.05,0,0,0.05,49.900000000000006,0)" xlink:href="#bK"/><use transform="matrix(0.05,0,0,0.05,64.85000000000001,0)" xlink:href="#bH"/><use transform="matrix(0.05,0,0,0.05,76.85000000000001,0)" xlink:href="#bL"/><use transform="matrix(0.05,0,0,0.05,81.85000000000001,0)" xlink:href="#bj"/><use transform="matrix(0.05,0,0,0.05,96.80000000000001,0)" xlink:href="#bz"/><path fill="#333" d="M-.9 1.25h108.6v1.32H-.9z"/></g><g id="C"><use transform="matrix(0.05,0,0,0.05,0,0)" xlink:href="#bv"/><use transform="matrix(0.05,0,0,0.05,9,0)" xlink:href="#bg"/><use transform="matrix(0.05,0,0,0.05,19,0)" xlink:href="#bk"/><use transform="matrix(0.05,0,0,0.05,29,0)" xlink:href="#bw"/><use transform="matrix(0.05,0,0,0.05,39,0)" xlink:href="#bD"/><use transform="matrix(0.05,0,0,0.05,49,0)" xlink:href="#bt"/><use transform="matrix(0.05,0,0,0.05,52.95,0)" xlink:href="#bi"/><use transform="matrix(0.05,0,0,0.05,62.95,0)" xlink:href="#bt"/><use transform="matrix(0.05,0,0,0.05,66.9,0)" xlink:href="#bf"/><use transform="matrix(0.05,0,0,0.05,76.9,0)" xlink:href="#bD"/><use transform="matrix(0.05,0,0,0.05,86.9,0)" xlink:href="#bL"/><use transform="matrix(0.05,0,0,0.05,91.9,0)" xlink:href="#bj"/><use transform="matrix(0.05,0,0,0.05,106.85000000000001,0)" xlink:href="#bz"/><path fill="#8080ff" d="M-.9 1.25h118.65v1.32H-.9z"/></g><g id="D"><use transform="matrix(0.05,0,0,0.05,0,0)" xlink:href="#bi"/><use transform="matrix(0.05,0,0,0.05,10,0)" xlink:href="#bh"/><use transform="matrix(0.05,0,0,0.05,15,0)" xlink:href="#bv"/><use transform="matrix(0.05,0,0,0.05,24,0)" xlink:href="#bL"/></g><g id="E"><use transform="matrix(0.05,0,0,0.05,0,0)" xlink:href="#bl"/><use transform="matrix(0.05,0,0,0.05,9,0)" xlink:href="#bm"/><use transform="matrix(0.05,0,0,0.05,14.949999999999998,0)" xlink:href="#bv"/></g><g id="F"><use transform="matrix(0.05,0,0,0.05,0,0)" xlink:href="#bl"/><use transform="matrix(0.05,0,0,0.05,9,0)" xlink:href="#bf"/><use transform="matrix(0.05,0,0,0.05,19,0)" xlink:href="#bp"/><use transform="matrix(0.05,0,0,0.05,29,0)" xlink:href="#bm"/><use transform="matrix(0.05,0,0,0.05,34.95,0)" xlink:href="#bv"/><use transform="matrix(0.05,0,0,0.05,43.95,0)" xlink:href="#bi"/></g><g id="G"><use transform="matrix(0.05,0,0,0.05,0,0)" xlink:href="#bv"/><use transform="matrix(0.05,0,0,0.05,9,0)" xlink:href="#bf"/><use transform="matrix(0.05,0,0,0.05,19,0)" xlink:href="#bz"/><use transform="matrix(0.05,0,0,0.05,29,0)" xlink:href="#bi"/></g><path fill="#333" d="M234-2c-28 10-62 0-77-18C117 19 8 12 13-65c3-43 29-61 60-76-25-40-17-114 47-108 35 3 59 15 59 50 0 44-40 53-71 69 14 26 32 50 51 72 14-21 24-43 30-72l26 8c-9 33-21 57-38 82 13 13 33 22 57 15v23zM97-151c25-10 52-18 56-48-1-18-13-29-33-29-42 0-39 50-23 77zM42-66c-3 51 71 58 98 28-20-24-41-51-56-80-23 10-40 24-42 52" id="bM"/><use transform="matrix(0.05,0,0,0.05,0,0)" xlink:href="#bM" id="H"/><g id="I"><use transform="matrix(0.05,0,0,0.05,0,0)" xlink:href="#bk"/><use transform="matrix(0.05,0,0,0.05,10,0)" xlink:href="#bl"/><use transform="matrix(0.05,0,0,0.05,19,0)" xlink:href="#bl"/><use transform="matrix(0.05,0,0,0.05,28,0)" xlink:href="#bi"/><use transform="matrix(0.05,0,0,0.05,38,0)" xlink:href="#bh"/><use transform="matrix(0.05,0,0,0.05,43,0)" xlink:href="#bl"/></g><g id="J"><use transform="matrix(0.05,0,0,0.05,0,0)" xlink:href="#br"/><use transform="matrix(0.05,0,0,0.05,10,0)" xlink:href="#bs"/><use transform="matrix(0.05,0,0,0.05,19,0)" xlink:href="#br"/><use transform="matrix(0.05,0,0,0.05,29,0)" xlink:href="#bm"/><use transform="matrix(0.05,0,0,0.05,34.95,0)" xlink:href="#bf"/><use transform="matrix(0.05,0,0,0.05,44.95,0)" xlink:href="#bB"/><use transform="matrix(0.05,0,0,0.05,48.900000000000006,0)" xlink:href="#bi"/><use transform="matrix(0.05,0,0,0.05,58.900000000000006,0)" xlink:href="#bv"/><use transform="matrix(0.05,0,0,0.05,67.9,0)" xlink:href="#bh"/><use transform="matrix(0.05,0,0,0.05,72.9,0)" xlink:href="#bL"/><use transform="matrix(0.05,0,0,0.05,77.9,0)" xlink:href="#bh"/><use transform="matrix(0.05,0,0,0.05,82.9,0)" xlink:href="#bf"/><use transform="matrix(0.05,0,0,0.05,92.9,0)" xlink:href="#bj"/><use transform="matrix(0.05,0,0,0.05,107.85000000000001,0)" xlink:href="#bt"/><path fill="#8080ff" d="M-.9 1.25h113.6v1.32H-.9z"/></g><g id="K"><use transform="matrix(0.05,0,0,0.05,0,0)" xlink:href="#bj"/><use transform="matrix(0.05,0,0,0.05,14.950000000000001,0)" xlink:href="#bk"/><use transform="matrix(0.05,0,0,0.05,24.950000000000003,0)" xlink:href="#bo"/><use transform="matrix(0.05,0,0,0.05,28.900000000000002,0)" xlink:href="#bw"/><use transform="matrix(0.05,0,0,0.05,38.900000000000006,0)" xlink:href="#bL"/><use transform="matrix(0.05,0,0,0.05,43.900000000000006,0)" xlink:href="#br"/><use transform="matrix(0.05,0,0,0.05,53.900000000000006,0)" xlink:href="#bs"/><path fill="#8080ff" d="M-.9 1.25h64.7v1.32H-.9z"/></g><g id="L"><use transform="matrix(0.05,0,0,0.05,0,0)" xlink:href="#bC"/><use transform="matrix(0.05,0,0,0.05,5,0)" xlink:href="#bt"/><use transform="matrix(0.05,0,0,0.05,8.95,0)" xlink:href="#bk"/><use transform="matrix(0.05,0,0,0.05,18.95,0)" xlink:href="#bD"/><use transform="matrix(0.05,0,0,0.05,28.950000000000003,0)" xlink:href="#bl"/></g><g id="M"><use transform="matrix(0.05,0,0,0.05,0,0)" xlink:href="#bC"/><use transform="matrix(0.05,0,0,0.05,5,0)" xlink:href="#bt"/><use transform="matrix(0.05,0,0,0.05,8.95,0)" xlink:href="#bk"/><use transform="matrix(0.05,0,0,0.05,18.95,0)" xlink:href="#bD"/></g><g id="N"><use transform="matrix(0.05,0,0,0.05,0,0)" xlink:href="#bo"/><use transform="matrix(0.05,0,0,0.05,3.95,0)" xlink:href="#bj"/><use transform="matrix(0.05,0,0,0.05,18.900000000000002,0)" xlink:href="#bk"/><use transform="matrix(0.05,0,0,0.05,28.900000000000002,0)" xlink:href="#bD"/><use transform="matrix(0.05,0,0,0.05,38.900000000000006,0)" xlink:href="#bi"/></g><g id="O"><use transform="matrix(0.05,0,0,0.05,0,0)" xlink:href="#bl"/><use transform="matrix(0.05,0,0,0.05,9,0)" xlink:href="#bf"/><use transform="matrix(0.05,0,0,0.05,19,0)" xlink:href="#bp"/><use transform="matrix(0.05,0,0,0.05,29,0)" xlink:href="#bm"/><use transform="matrix(0.05,0,0,0.05,34.95,0)" xlink:href="#bv"/><use transform="matrix(0.05,0,0,0.05,43.95,0)" xlink:href="#bi"/></g><g id="P"><use transform="matrix(0.05,0,0,0.05,0,0)" xlink:href="#bC"/><use transform="matrix(0.05,0,0,0.05,5,0)" xlink:href="#bo"/><use transform="matrix(0.05,0,0,0.05,8.95,0)" xlink:href="#bt"/><use transform="matrix(0.05,0,0,0.05,12.899999999999999,0)" xlink:href="#bi"/><use transform="matrix(0.05,0,0,0.05,22.9,0)" xlink:href="#bl"/></g><path fill="#333" d="M87 75C49 33 22-17 22-94c0-76 28-126 65-167h31c-38 41-64 92-64 168S80 34 118 75H87" id="bN"/><path fill="#333" d="M27 0v-27h64v-190l-56 39v-29l58-41h29v221h61V0H27" id="bO"/><path fill="#333" d="M99-251c64 0 84 50 84 122C183-37 130 33 47-8c-14-7-20-23-25-40l30-5c6 39 69 39 84 7 9-19 16-44 16-74-10 22-31 35-62 35-49 0-73-33-73-83 0-54 28-83 82-83zm-1 141c31-1 51-18 51-49 0-36-14-67-51-67-34 0-49 23-49 58 0 34 15 58 49 58" id="bP"/><path fill="#333" d="M134-131c28 9 52 24 51 62-1 50-34 73-85 73S17-19 16-69c0-36 21-54 49-61-75-25-45-126 34-121 46 3 78 18 79 63 0 33-17 51-44 57zm-34-11c31 1 46-15 46-44 0-28-17-43-47-42-29 0-46 13-45 42 1 28 16 44 46 44zm1 122c35 0 51-18 51-52 0-30-18-46-53-46-33 0-51 17-51 47 0 34 19 51 53 51" id="bQ"/><g id="Q"><use transform="matrix(0.05,0,0,0.05,0,0)" xlink:href="#bN"/><use transform="matrix(0.05,0,0,0.05,5.95,0)" xlink:href="#bO"/><use transform="matrix(0.05,0,0,0.05,15.949999999999998,0)" xlink:href="#bP"/><use transform="matrix(0.05,0,0,0.05,25.950000000000003,0)" xlink:href="#bQ"/></g><g id="R"><use transform="matrix(0.05,0,0,0.05,0,0)" xlink:href="#bL"/><use transform="matrix(0.05,0,0,0.05,5,0)" xlink:href="#br"/><use transform="matrix(0.05,0,0,0.05,15,0)" xlink:href="#bw"/><use transform="matrix(0.05,0,0,0.05,25,0)" xlink:href="#bD"/></g><path fill="#333" d="M33-261c38 41 65 92 65 168S71 34 33 75H2C39 34 66-17 66-93S39-220 2-261h31" id="bR"/><g id="S"><use transform="matrix(0.05,0,0,0.05,0,0)" xlink:href="#bC"/><use transform="matrix(0.05,0,0,0.05,5,0)" xlink:href="#bo"/><use transform="matrix(0.05,0,0,0.05,8.95,0)" xlink:href="#bt"/><use transform="matrix(0.05,0,0,0.05,12.899999999999999,0)" xlink:href="#bi"/><use transform="matrix(0.05,0,0,0.05,22.9,0)" xlink:href="#bl"/><use transform="matrix(0.05,0,0,0.05,31.899999999999995,0)" xlink:href="#bR"/></g><path fill="#333" d="M-5 72V49h209v23H-5" id="bS"/><g id="T"><use transform="matrix(0.05,0,0,0.05,0,0)" xlink:href="#bD"/><use transform="matrix(0.05,0,0,0.05,10,0)" xlink:href="#bp"/><use transform="matrix(0.05,0,0,0.05,20,0)" xlink:href="#bo"/><use transform="matrix(0.05,0,0,0.05,23.95,0)" xlink:href="#bS"/><use transform="matrix(0.05,0,0,0.05,33.95,0)" xlink:href="#bi"/><use transform="matrix(0.05,0,0,0.05,43.95,0)" xlink:href="#bt"/><use transform="matrix(0.05,0,0,0.05,47.900000000000006,0)" xlink:href="#bi"/><use transform="matrix(0.05,0,0,0.05,57.900000000000006,0)" xlink:href="#bj"/><use transform="matrix(0.05,0,0,0.05,72.85000000000001,0)" xlink:href="#bi"/><use transform="matrix(0.05,0,0,0.05,82.85000000000001,0)" xlink:href="#bw"/><use transform="matrix(0.05,0,0,0.05,92.85000000000001,0)" xlink:href="#bh"/><use transform="matrix(0.05,0,0,0.05,97.85000000000001,0)" xlink:href="#bl"/></g><g id="U"><use transform="matrix(0.05,0,0,0.05,0,0)" xlink:href="#bD"/><use transform="matrix(0.05,0,0,0.05,10,0)" xlink:href="#bm"/><use transform="matrix(0.05,0,0,0.05,15.949999999999998,0)" xlink:href="#bk"/><use transform="matrix(0.05,0,0,0.05,25.950000000000003,0)" xlink:href="#br"/><use transform="matrix(0.05,0,0,0.05,35.95,0)" xlink:href="#bg"/><use transform="matrix(0.05,0,0,0.05,45.95,0)" xlink:href="#bo"/><use transform="matrix(0.05,0,0,0.05,49.900000000000006,0)" xlink:href="#bv"/><use transform="matrix(0.05,0,0,0.05,58.900000000000006,0)" xlink:href="#bk"/><use transform="matrix(0.05,0,0,0.05,68.9,0)" xlink:href="#bt"/></g><g id="V"><use transform="matrix(0.05,0,0,0.05,0,0)" xlink:href="#bp"/><use transform="matrix(0.05,0,0,0.05,10,0)" xlink:href="#bl"/><use transform="matrix(0.05,0,0,0.05,19,0)" xlink:href="#bi"/><use transform="matrix(0.05,0,0,0.05,29,0)" xlink:href="#bm"/></g><g id="W"><use transform="matrix(0.05,0,0,0.05,0,0)" xlink:href="#bo"/><use transform="matrix(0.05,0,0,0.05,3.95,0)" xlink:href="#bw"/><use transform="matrix(0.05,0,0,0.05,13.949999999999998,0)" xlink:href="#bh"/><use transform="matrix(0.05,0,0,0.05,18.95,0)" xlink:href="#bi"/><use transform="matrix(0.05,0,0,0.05,28.950000000000003,0)" xlink:href="#bm"/><use transform="matrix(0.05,0,0,0.05,34.9,0)" xlink:href="#bC"/><use transform="matrix(0.05,0,0,0.05,39.9,0)" xlink:href="#bk"/><use transform="matrix(0.05,0,0,0.05,49.9,0)" xlink:href="#bv"/><use transform="matrix(0.05,0,0,0.05,58.900000000000006,0)" xlink:href="#bi"/></g><g id="X"><use transform="matrix(0.05,0,0,0.05,0,0)" xlink:href="#bj"/><use transform="matrix(0.05,0,0,0.05,14.950000000000001,0)" xlink:href="#bf"/><use transform="matrix(0.05,0,0,0.05,24.950000000000003,0)" xlink:href="#bz"/><use transform="matrix(0.05,0,0,0.05,34.95,0)" xlink:href="#bp"/><use transform="matrix(0.05,0,0,0.05,44.95,0)" xlink:href="#bt"/><use transform="matrix(0.05,0,0,0.05,48.900000000000006,0)" xlink:href="#bi"/><use transform="matrix(0.05,0,0,0.05,58.900000000000006,0)" xlink:href="#bl"/></g><g id="Y"><use transform="matrix(0.05,0,0,0.05,0,0)" xlink:href="#bt"/><use transform="matrix(0.05,0,0,0.05,3.95,0)" xlink:href="#bf"/><use transform="matrix(0.05,0,0,0.05,13.949999999999998,0)" xlink:href="#bD"/><use transform="matrix(0.05,0,0,0.05,23.95,0)" xlink:href="#bl"/></g><g id="Z"><use transform="matrix(0.05,0,0,0.05,0,0)" xlink:href="#bm"/><use transform="matrix(0.05,0,0,0.05,5.95,0)" xlink:href="#bp"/><use transform="matrix(0.05,0,0,0.05,15.949999999999998,0)" xlink:href="#bt"/><use transform="matrix(0.05,0,0,0.05,19.9,0)" xlink:href="#bi"/><use transform="matrix(0.05,0,0,0.05,29.899999999999995,0)" xlink:href="#bq"/><use transform="matrix(0.05,0,0,0.05,39.9,0)" xlink:href="#bf"/><use transform="matrix(0.05,0,0,0.05,49.9,0)" xlink:href="#bf"/><use transform="matrix(0.05,0,0,0.05,59.900000000000006,0)" xlink:href="#bu"/><use transform="matrix(0.05,0,0,0.05,68.9,0)" xlink:href="#bE"/></g><g id="aa"><use transform="matrix(0.05,0,0,0.05,0,0)" xlink:href="#bg"/><use transform="matrix(0.05,0,0,0.05,10,0)" xlink:href="#bo"/><use transform="matrix(0.05,0,0,0.05,13.949999999999998,0)" xlink:href="#bl"/><use transform="matrix(0.05,0,0,0.05,22.95,0)" xlink:href="#bh"/><use transform="matrix(0.05,0,0,0.05,27.950000000000003,0)" xlink:href="#bf"/><use transform="matrix(0.05,0,0,0.05,37.95,0)" xlink:href="#bm"/><use transform="matrix(0.05,0,0,0.05,43.900000000000006,0)" xlink:href="#bs"/></g><g id="ab"><use transform="matrix(0.05,0,0,0.05,0,0)" xlink:href="#bl"/><use transform="matrix(0.05,0,0,0.05,9,0)" xlink:href="#bh"/><use transform="matrix(0.05,0,0,0.05,14,0)" xlink:href="#bk"/><use transform="matrix(0.05,0,0,0.05,24,0)" xlink:href="#bh"/><use transform="matrix(0.05,0,0,0.05,29,0)" xlink:href="#bo"/><use transform="matrix(0.05,0,0,0.05,32.95,0)" xlink:href="#bl"/><use transform="matrix(0.05,0,0,0.05,41.95,0)" xlink:href="#bh"/><use transform="matrix(0.05,0,0,0.05,46.95,0)" xlink:href="#bo"/><use transform="matrix(0.05,0,0,0.05,50.900000000000006,0)" xlink:href="#bv"/><use transform="matrix(0.05,0,0,0.05,59.900000000000006,0)" xlink:href="#bl"/></g><g id="ac"><use transform="matrix(0.05,0,0,0.05,0,0)" xlink:href="#bz"/><use transform="matrix(0.05,0,0,0.05,10,0)" xlink:href="#bk"/><use transform="matrix(0.05,0,0,0.05,20,0)" xlink:href="#bh"/><use transform="matrix(0.05,0,0,0.05,25,0)" xlink:href="#bk"/></g><g id="ad"><use transform="matrix(0.05,0,0,0.05,0,0)" xlink:href="#bl"/><use transform="matrix(0.05,0,0,0.05,9,0)" xlink:href="#bh"/><use transform="matrix(0.05,0,0,0.05,14,0)" xlink:href="#bk"/><use transform="matrix(0.05,0,0,0.05,24,0)" xlink:href="#bh"/><use transform="matrix(0.05,0,0,0.05,29,0)" xlink:href="#bl"/></g><g id="ae"><use transform="matrix(0.05,0,0,0.05,0,0)" xlink:href="#bk"/><use transform="matrix(0.05,0,0,0.05,10,0)" xlink:href="#bz"/><use transform="matrix(0.05,0,0,0.05,20,0)" xlink:href="#bz"/><use transform="matrix(0.05,0,0,0.05,30,0)" xlink:href="#bo"/><use transform="matrix(0.05,0,0,0.05,33.95,0)" xlink:href="#bh"/><use transform="matrix(0.05,0,0,0.05,38.95,0)" xlink:href="#bo"/><use transform="matrix(0.05,0,0,0.05,42.900000000000006,0)" xlink:href="#bf"/><use transform="matrix(0.05,0,0,0.05,52.900000000000006,0)" xlink:href="#bw"/><use transform="matrix(0.05,0,0,0.05,62.900000000000006,0)" xlink:href="#bk"/><use transform="matrix(0.05,0,0,0.05,72.9,0)" xlink:href="#bt"/></g><path fill="#333" d="M30-248c87 1 191-15 191 75 0 78-77 80-158 76V0H30v-248zm33 125c57 0 124 11 124-50 0-59-68-47-124-48v98" id="bT"/><g id="af"><use transform="matrix(0.05,0,0,0.05,0,0)" xlink:href="#bT"/><use transform="matrix(0.05,0,0,0.05,12,0)" xlink:href="#bs"/><use transform="matrix(0.05,0,0,0.05,21,0)" xlink:href="#bh"/><use transform="matrix(0.05,0,0,0.05,26,0)" xlink:href="#bg"/><use transform="matrix(0.05,0,0,0.05,36,0)" xlink:href="#bf"/><use transform="matrix(0.05,0,0,0.05,46,0)" xlink:href="#bw"/></g><g id="ag"><use transform="matrix(0.05,0,0,0.05,0,0)" xlink:href="#bj"/><use transform="matrix(0.05,0,0,0.05,14.950000000000001,0)" xlink:href="#bf"/><use transform="matrix(0.05,0,0,0.05,24.950000000000003,0)" xlink:href="#bz"/><use transform="matrix(0.05,0,0,0.05,34.95,0)" xlink:href="#bp"/><use transform="matrix(0.05,0,0,0.05,44.95,0)" xlink:href="#bt"/><use transform="matrix(0.05,0,0,0.05,48.900000000000006,0)" xlink:href="#bi"/><use transform="matrix(0.05,0,0,0.05,58.900000000000006,0)" xlink:href="#bl"/></g><g id="ah"><use transform="matrix(0.05,0,0,0.05,0,0)" xlink:href="#bh"/><use transform="matrix(0.05,0,0,0.05,5,0)" xlink:href="#bf"/></g><g id="ai"><use transform="matrix(0.05,0,0,0.05,0,0)" xlink:href="#bk"/><use transform="matrix(0.05,0,0,0.05,10,0)" xlink:href="#bl"/><use transform="matrix(0.05,0,0,0.05,19,0)" xlink:href="#bl"/><use transform="matrix(0.05,0,0,0.05,28,0)" xlink:href="#bo"/><use transform="matrix(0.05,0,0,0.05,31.950000000000003,0)" xlink:href="#bl"/><use transform="matrix(0.05,0,0,0.05,40.95,0)" xlink:href="#bh"/></g><g id="aj"><use transform="matrix(0.05,0,0,0.05,0,0)" xlink:href="#bo"/><use transform="matrix(0.05,0,0,0.05,3.95,0)" xlink:href="#bw"/></g><g id="ak"><use transform="matrix(0.05,0,0,0.05,0,0)" xlink:href="#bv"/><use transform="matrix(0.05,0,0,0.05,9,0)" xlink:href="#bk"/><use transform="matrix(0.05,0,0,0.05,19,0)" xlink:href="#bt"/><use transform="matrix(0.05,0,0,0.05,22.95,0)" xlink:href="#bv"/><use transform="matrix(0.05,0,0,0.05,31.950000000000003,0)" xlink:href="#bp"/><use transform="matrix(0.05,0,0,0.05,41.95,0)" xlink:href="#bt"/><use transform="matrix(0.05,0,0,0.05,45.900000000000006,0)" xlink:href="#bk"/><use transform="matrix(0.05,0,0,0.05,55.900000000000006,0)" xlink:href="#bh"/><use transform="matrix(0.05,0,0,0.05,60.900000000000006,0)" xlink:href="#bo"/><use transform="matrix(0.05,0,0,0.05,64.85000000000001,0)" xlink:href="#bf"/><use transform="matrix(0.05,0,0,0.05,74.85000000000001,0)" xlink:href="#bw"/><use transform="matrix(0.05,0,0,0.05,84.85000000000001,0)" xlink:href="#bl"/></g><g id="al"><use transform="matrix(0.05,0,0,0.05,0,0)" xlink:href="#bh"/><use transform="matrix(0.05,0,0,0.05,5,0)" xlink:href="#bi"/><use transform="matrix(0.05,0,0,0.05,15,0)" xlink:href="#bl"/><use transform="matrix(0.05,0,0,0.05,24,0)" xlink:href="#bh"/><use transform="matrix(0.05,0,0,0.05,29,0)" xlink:href="#bl"/></g><g id="am"><use transform="matrix(0.05,0,0,0.05,0,0)" xlink:href="#br"/><use transform="matrix(0.05,0,0,0.05,10,0)" xlink:href="#bs"/><use transform="matrix(0.05,0,0,0.05,19,0)" xlink:href="#bh"/><use transform="matrix(0.05,0,0,0.05,24,0)" xlink:href="#bi"/><use transform="matrix(0.05,0,0,0.05,34,0)" xlink:href="#bl"/><use transform="matrix(0.05,0,0,0.05,43,0)" xlink:href="#bh"/><use transform="matrix(0.05,0,0,0.05,48,0)" xlink:href="#bl"/></g><g id="an"><use transform="matrix(0.05,0,0,0.05,0,0)" xlink:href="#bD"/><use transform="matrix(0.05,0,0,0.05,10,0)" xlink:href="#bp"/><use transform="matrix(0.05,0,0,0.05,20,0)" xlink:href="#bo"/><use transform="matrix(0.05,0,0,0.05,23.95,0)" xlink:href="#bS"/><use transform="matrix(0.05,0,0,0.05,33.95,0)" xlink:href="#bC"/><use transform="matrix(0.05,0,0,0.05,38.95,0)" xlink:href="#bo"/><use transform="matrix(0.05,0,0,0.05,42.900000000000006,0)" xlink:href="#bt"/><use transform="matrix(0.05,0,0,0.05,46.85000000000001,0)" xlink:href="#bi"/><use transform="matrix(0.05,0,0,0.05,56.85,0)" xlink:href="#bS"/><use transform="matrix(0.05,0,0,0.05,66.85000000000001,0)" xlink:href="#bj"/><use transform="matrix(0.05,0,0,0.05,81.80000000000001,0)" xlink:href="#bi"/><use transform="matrix(0.05,0,0,0.05,91.80000000000001,0)" xlink:href="#bw"/><use transform="matrix(0.05,0,0,0.05,101.80000000000001,0)" xlink:href="#bp"/><use transform="matrix(0.05,0,0,0.05,111.80000000000001,0)" xlink:href="#bL"/><use transform="matrix(0.05,0,0,0.05,116.80000000000001,0)" xlink:href="#br"/><use transform="matrix(0.05,0,0,0.05,126.80000000000001,0)" xlink:href="#bs"/><path fill="#333" d="M-.9 1.25h137.6v1.32H-.9z"/></g><g id="ao"><use transform="matrix(0.05,0,0,0.05,0,0)" xlink:href="#bD"/><use transform="matrix(0.05,0,0,0.05,10,0)" xlink:href="#bk"/><use transform="matrix(0.05,0,0,0.05,20,0)" xlink:href="#bj"/><use transform="matrix(0.05,0,0,0.05,34.95,0)" xlink:href="#bi"/><use transform="matrix(0.05,0,0,0.05,44.95,0)" xlink:href="#bm"/><use transform="matrix(0.05,0,0,0.05,50.900000000000006,0)" xlink:href="#bp"/><use transform="matrix(0.05,0,0,0.05,60.900000000000006,0)" xlink:href="#bt"/><use transform="matrix(0.05,0,0,0.05,64.85000000000001,0)" xlink:href="#bi"/><use transform="matrix(0.05,0,0,0.05,74.85000000000001,0)" xlink:href="#bl"/><use transform="matrix(0.05,0,0,0.05,83.85000000000001,0)" xlink:href="#bL"/><use transform="matrix(0.05,0,0,0.05,88.85000000000001,0)" xlink:href="#bh"/><use transform="matrix(0.05,0,0,0.05,93.85000000000001,0)" xlink:href="#by"/><use transform="matrix(0.05,0,0,0.05,102.85000000000001,0)" xlink:href="#bh"/><path fill="#8080ff" d="M-.9 1.25h109.65v1.32H-.9z"/></g><g id="ap"><use transform="matrix(0.05,0,0,0.05,0,0)" xlink:href="#bD"/><use transform="matrix(0.05,0,0,0.05,10,0)" xlink:href="#bk"/><use transform="matrix(0.05,0,0,0.05,20,0)" xlink:href="#bj"/><use transform="matrix(0.05,0,0,0.05,34.95,0)" xlink:href="#bi"/><use transform="matrix(0.05,0,0,0.05,44.95,0)" xlink:href="#bS"/><use transform="matrix(0.05,0,0,0.05,54.95,0)" xlink:href="#bv"/><use transform="matrix(0.05,0,0,0.05,63.95,0)" xlink:href="#bk"/><use transform="matrix(0.05,0,0,0.05,73.95,0)" xlink:href="#bt"/><use transform="matrix(0.05,0,0,0.05,77.9,0)" xlink:href="#bv"/><use transform="matrix(0.05,0,0,0.05,86.9,0)" xlink:href="#bL"/><use transform="matrix(0.05,0,0,0.05,91.9,0)" xlink:href="#br"/><use transform="matrix(0.05,0,0,0.05,101.9,0)" xlink:href="#bs"/><path fill="#333" d="M-.9 1.25h112.7v1.32H-.9z"/></g><g id="aq"><use transform="matrix(0.05,0,0,0.05,0,0)" xlink:href="#bo"/><use transform="matrix(0.05,0,0,0.05,3.95,0)" xlink:href="#bw"/><use transform="matrix(0.05,0,0,0.05,13.949999999999998,0)" xlink:href="#bv"/><use transform="matrix(0.05,0,0,0.05,22.95,0)" xlink:href="#bt"/><use transform="matrix(0.05,0,0,0.05,26.899999999999995,0)" xlink:href="#bp"/><use transform="matrix(0.05,0,0,0.05,36.9,0)" xlink:href="#bz"/><use transform="matrix(0.05,0,0,0.05,46.9,0)" xlink:href="#bi"/><use transform="matrix(0.05,0,0,0.05,56.900000000000006,0)" xlink:href="#bl"/></g><g id="ar"><use transform="matrix(0.05,0,0,0.05,0,0)" xlink:href="#bo"/><use transform="matrix(0.05,0,0,0.05,3.95,0)" xlink:href="#bw"/><use transform="matrix(0.05,0,0,0.05,13.949999999999998,0)" xlink:href="#bl"/><use transform="matrix(0.05,0,0,0.05,22.95,0)" xlink:href="#bh"/><use transform="matrix(0.05,0,0,0.05,27.950000000000003,0)" xlink:href="#bk"/><use transform="matrix(0.05,0,0,0.05,37.95,0)" xlink:href="#bt"/><use transform="matrix(0.05,0,0,0.05,41.900000000000006,0)" xlink:href="#bt"/><use transform="matrix(0.05,0,0,0.05,45.85000000000001,0)" xlink:href="#bk"/><use transform="matrix(0.05,0,0,0.05,55.85,0)" xlink:href="#bh"/><use transform="matrix(0.05,0,0,0.05,60.85,0)" xlink:href="#bo"/><use transform="matrix(0.05,0,0,0.05,64.80000000000001,0)" xlink:href="#bf"/><use transform="matrix(0.05,0,0,0.05,74.80000000000001,0)" xlink:href="#bw"/></g><g id="as"><use transform="matrix(0.05,0,0,0.05,0,0)" xlink:href="#bD"/><use transform="matrix(0.05,0,0,0.05,10,0)" xlink:href="#bp"/><use transform="matrix(0.05,0,0,0.05,20,0)" xlink:href="#bo"/><use transform="matrix(0.05,0,0,0.05,23.95,0)" xlink:href="#bz"/><use transform="matrix(0.05,0,0,0.05,33.95,0)" xlink:href="#bi"/></g><g id="at"><use transform="matrix(0.05,0,0,0.05,0,0)" xlink:href="#bq"/><use transform="matrix(0.05,0,0,0.05,10,0)" xlink:href="#bk"/><use transform="matrix(0.05,0,0,0.05,20,0)" xlink:href="#bv"/><use transform="matrix(0.05,0,0,0.05,29,0)" xlink:href="#bu"/><use transform="matrix(0.05,0,0,0.05,38,0)" xlink:href="#bp"/><use transform="matrix(0.05,0,0,0.05,48,0)" xlink:href="#br"/></g><g id="au"><use transform="matrix(0.05,0,0,0.05,0,0)" xlink:href="#bC"/><use transform="matrix(0.05,0,0,0.05,5,0)" xlink:href="#bf"/><use transform="matrix(0.05,0,0,0.05,15,0)" xlink:href="#bt"/><use transform="matrix(0.05,0,0,0.05,18.95,0)" xlink:href="#bz"/><use transform="matrix(0.05,0,0,0.05,28.950000000000003,0)" xlink:href="#bi"/><use transform="matrix(0.05,0,0,0.05,38.95,0)" xlink:href="#bm"/></g><g id="av"><use transform="matrix(0.05,0,0,0.05,0,0)" xlink:href="#bj"/><use transform="matrix(0.05,0,0,0.05,14.950000000000001,0)" xlink:href="#bf"/><use transform="matrix(0.05,0,0,0.05,24.950000000000003,0)" xlink:href="#bA"/><use transform="matrix(0.05,0,0,0.05,33.95,0)" xlink:href="#bi"/></g><g id="aw"><use transform="matrix(0.05,0,0,0.05,0,0)" xlink:href="#bk"/><use transform="matrix(0.05,0,0,0.05,10,0)" xlink:href="#bp"/><use transform="matrix(0.05,0,0,0.05,20,0)" xlink:href="#bh"/><use transform="matrix(0.05,0,0,0.05,25,0)" xlink:href="#bg"/><use transform="matrix(0.05,0,0,0.05,35,0)" xlink:href="#bi"/><use transform="matrix(0.05,0,0,0.05,45,0)" xlink:href="#bw"/><use transform="matrix(0.05,0,0,0.05,55,0)" xlink:href="#bh"/><use transform="matrix(0.05,0,0,0.05,60,0)" xlink:href="#bo"/><use transform="matrix(0.05,0,0,0.05,63.95,0)" xlink:href="#bv"/></g><g id="ax"><use transform="matrix(0.05,0,0,0.05,0,0)" xlink:href="#br"/><use transform="matrix(0.05,0,0,0.05,10,0)" xlink:href="#bt"/><use transform="matrix(0.05,0,0,0.05,13.949999999999998,0)" xlink:href="#bk"/><use transform="matrix(0.05,0,0,0.05,23.95,0)" xlink:href="#bs"/><use transform="matrix(0.05,0,0,0.05,32.95,0)" xlink:href="#bi"/><use transform="matrix(0.05,0,0,0.05,42.95,0)" xlink:href="#bm"/></g><g id="ay"><use transform="matrix(0.05,0,0,0.05,0,0)" xlink:href="#bt"/><use transform="matrix(0.05,0,0,0.05,3.95,0)" xlink:href="#bf"/><use transform="matrix(0.05,0,0,0.05,13.949999999999998,0)" xlink:href="#bD"/><use transform="matrix(0.05,0,0,0.05,23.95,0)" xlink:href="#bl"/></g><g id="az"><use transform="matrix(0.05,0,0,0.05,0,0)" xlink:href="#bl"/><use transform="matrix(0.05,0,0,0.05,9,0)" xlink:href="#bk"/><use transform="matrix(0.05,0,0,0.05,19,0)" xlink:href="#bC"/><use transform="matrix(0.05,0,0,0.05,24,0)" xlink:href="#bi"/><use transform="matrix(0.05,0,0,0.05,34,0)" xlink:href="#bh"/><use transform="matrix(0.05,0,0,0.05,39,0)" xlink:href="#bs"/></g><g id="aA"><use transform="matrix(0.05,0,0,0.05,0,0)" xlink:href="#bz"/><use transform="matrix(0.05,0,0,0.05,10,0)" xlink:href="#bp"/><use transform="matrix(0.05,0,0,0.05,20,0)" xlink:href="#bm"/><use transform="matrix(0.05,0,0,0.05,25.950000000000003,0)" xlink:href="#bo"/><use transform="matrix(0.05,0,0,0.05,29.899999999999995,0)" xlink:href="#bw"/><use transform="matrix(0.05,0,0,0.05,39.9,0)" xlink:href="#bD"/></g><g id="aB"><use transform="matrix(0.05,0,0,0.05,0,0)" xlink:href="#br"/><use transform="matrix(0.05,0,0,0.05,10,0)" xlink:href="#bs"/><use transform="matrix(0.05,0,0,0.05,19,0)" xlink:href="#bh"/><use transform="matrix(0.05,0,0,0.05,24,0)" xlink:href="#bi"/><use transform="matrix(0.05,0,0,0.05,34,0)" xlink:href="#bl"/><use transform="matrix(0.05,0,0,0.05,43,0)" xlink:href="#bh"/><use transform="matrix(0.05,0,0,0.05,48,0)" xlink:href="#bo"/><use transform="matrix(0.05,0,0,0.05,51.95,0)" xlink:href="#bw"/><use transform="matrix(0.05,0,0,0.05,61.95,0)" xlink:href="#bD"/></g><g id="aC"><use transform="matrix(0.05,0,0,0.05,0,0)" xlink:href="#bi"/><use transform="matrix(0.05,0,0,0.05,10,0)" xlink:href="#bj"/><use transform="matrix(0.05,0,0,0.05,24.950000000000003,0)" xlink:href="#br"/><use transform="matrix(0.05,0,0,0.05,34.95,0)" xlink:href="#bh"/><use transform="matrix(0.05,0,0,0.05,39.95,0)" xlink:href="#bs"/></g><g id="aD"><use transform="matrix(0.05,0,0,0.05,0,0)" xlink:href="#bv"/><use transform="matrix(0.05,0,0,0.05,9,0)" xlink:href="#bf"/><use transform="matrix(0.05,0,0,0.05,19,0)" xlink:href="#bw"/><use transform="matrix(0.05,0,0,0.05,29,0)" xlink:href="#bh"/><use transform="matrix(0.05,0,0,0.05,34,0)" xlink:href="#bk"/><use transform="matrix(0.05,0,0,0.05,44,0)" xlink:href="#bo"/><use transform="matrix(0.05,0,0,0.05,47.95,0)" xlink:href="#bw"/><use transform="matrix(0.05,0,0,0.05,57.95,0)" xlink:href="#bl"/></g><g id="aE"><use transform="matrix(0.05,0,0,0.05,0,0)" xlink:href="#bi"/><use transform="matrix(0.05,0,0,0.05,10,0)" xlink:href="#bj"/><use transform="matrix(0.05,0,0,0.05,24.950000000000003,0)" xlink:href="#br"/><use transform="matrix(0.05,0,0,0.05,34.95,0)" xlink:href="#bh"/><use transform="matrix(0.05,0,0,0.05,39.95,0)" xlink:href="#bs"/></g><g id="aF"><use transform="matrix(0.05,0,0,0.05,0,0)" xlink:href="#bz"/><use transform="matrix(0.05,0,0,0.05,10,0)" xlink:href="#bi"/><use transform="matrix(0.05,0,0,0.05,20,0)" xlink:href="#bC"/><use transform="matrix(0.05,0,0,0.05,25,0)" xlink:href="#bk"/><use transform="matrix(0.05,0,0,0.05,35,0)" xlink:href="#bp"/><use transform="matrix(0.05,0,0,0.05,45,0)" xlink:href="#bt"/><use transform="matrix(0.05,0,0,0.05,48.95,0)" xlink:href="#bh"/></g><g id="aG"><use transform="matrix(0.05,0,0,0.05,0,0)" xlink:href="#bt"/><use transform="matrix(0.05,0,0,0.05,3.95,0)" xlink:href="#bf"/><use transform="matrix(0.05,0,0,0.05,13.949999999999998,0)" xlink:href="#bD"/></g><g id="aH"><use transform="matrix(0.05,0,0,0.05,0,0)" xlink:href="#bv"/><use transform="matrix(0.05,0,0,0.05,9,0)" xlink:href="#bf"/><use transform="matrix(0.05,0,0,0.05,19,0)" xlink:href="#br"/><use transform="matrix(0.05,0,0,0.05,29,0)" xlink:href="#bs"/></g><g id="aI"><use transform="matrix(0.05,0,0,0.05,0,0)" xlink:href="#bo"/><use transform="matrix(0.05,0,0,0.05,3.95,0)" xlink:href="#bC"/></g><g id="aJ"><use transform="matrix(0.05,0,0,0.05,0,0)" xlink:href="#bw"/><use transform="matrix(0.05,0,0,0.05,10,0)" xlink:href="#bf"/></g><g id="aK"><use transform="matrix(0.05,0,0,0.05,0,0)" xlink:href="#bs"/><use transform="matrix(0.05,0,0,0.05,9,0)" xlink:href="#bi"/><use transform="matrix(0.05,0,0,0.05,19,0)" xlink:href="#bh"/></g><g id="aL"><use transform="matrix(0.05,0,0,0.05,0,0)" xlink:href="#bi"/><use transform="matrix(0.05,0,0,0.05,10,0)" xlink:href="#by"/><use transform="matrix(0.05,0,0,0.05,19,0)" xlink:href="#bo"/><use transform="matrix(0.05,0,0,0.05,22.95,0)" xlink:href="#bl"/><use transform="matrix(0.05,0,0,0.05,31.950000000000003,0)" xlink:href="#bh"/></g><g id="aM"><use transform="matrix(0.05,0,0,0.05,0,0)" xlink:href="#bv"/><use transform="matrix(0.05,0,0,0.05,9,0)" xlink:href="#bS"/><use transform="matrix(0.05,0,0,0.05,19,0)" xlink:href="#bh"/><use transform="matrix(0.05,0,0,0.05,24,0)" xlink:href="#bo"/><use transform="matrix(0.05,0,0,0.05,27.950000000000003,0)" xlink:href="#bj"/><use transform="matrix(0.05,0,0,0.05,42.9,0)" xlink:href="#bi"/><use transform="matrix(0.05,0,0,0.05,52.900000000000006,0)" xlink:href="#bm"/><use transform="matrix(0.05,0,0,0.05,58.85,0)" xlink:href="#bt"/><use transform="matrix(0.05,0,0,0.05,62.800000000000004,0)" xlink:href="#bf"/><use transform="matrix(0.05,0,0,0.05,72.80000000000001,0)" xlink:href="#bD"/><use transform="matrix(0.05,0,0,0.05,82.80000000000001,0)" xlink:href="#bo"/><use transform="matrix(0.05,0,0,0.05,86.75000000000001,0)" xlink:href="#bv"/><use transform="matrix(0.05,0,0,0.05,95.75000000000001,0)" xlink:href="#bS"/><use transform="matrix(0.05,0,0,0.05,105.75,0)" xlink:href="#bh"/><use transform="matrix(0.05,0,0,0.05,110.75,0)" xlink:href="#bi"/><use transform="matrix(0.05,0,0,0.05,120.75,0)" xlink:href="#bl"/><use transform="matrix(0.05,0,0,0.05,129.75,0)" xlink:href="#bh"/><use transform="matrix(0.05,0,0,0.05,134.75,0)" xlink:href="#bL"/><use transform="matrix(0.05,0,0,0.05,139.75,0)" xlink:href="#br"/><use transform="matrix(0.05,0,0,0.05,149.75,0)" xlink:href="#bs"/><path fill="#333" d="M-.9 1.25h160.55v1.32H-.9z"/></g><g id="aN"><use transform="matrix(0.05,0,0,0.05,0,0)" xlink:href="#bk"/><use transform="matrix(0.05,0,0,0.05,10,0)" xlink:href="#bt"/><use transform="matrix(0.05,0,0,0.05,13.949999999999998,0)" xlink:href="#bt"/></g><g id="aO"><use transform="matrix(0.05,0,0,0.05,0,0)" xlink:href="#bm"/><use transform="matrix(0.05,0,0,0.05,5.95,0)" xlink:href="#bp"/><use transform="matrix(0.05,0,0,0.05,15.949999999999998,0)" xlink:href="#bw"/></g><g id="aP"><use transform="matrix(0.05,0,0,0.05,0,0)" xlink:href="#bo"/><use transform="matrix(0.05,0,0,0.05,3.95,0)" xlink:href="#bw"/><use transform="matrix(0.05,0,0,0.05,13.949999999999998,0)" xlink:href="#bA"/><use transform="matrix(0.05,0,0,0.05,22.95,0)" xlink:href="#bf"/><use transform="matrix(0.05,0,0,0.05,32.95,0)" xlink:href="#bu"/><use transform="matrix(0.05,0,0,0.05,41.95,0)" xlink:href="#bi"/><use transform="matrix(0.05,0,0,0.05,51.95,0)" xlink:href="#bF"/></g><g id="aQ"><use transform="matrix(0.05,0,0,0.05,0,0)" xlink:href="#bh"/><use transform="matrix(0.05,0,0,0.05,5,0)" xlink:href="#bk"/><use transform="matrix(0.05,0,0,0.05,15,0)" xlink:href="#bl"/><use transform="matrix(0.05,0,0,0.05,24,0)" xlink:href="#bu"/><use transform="matrix(0.05,0,0,0.05,33,0)" xlink:href="#bl"/></g><g id="aR"><use transform="matrix(0.05,0,0,0.05,0,0)" xlink:href="#bl"/><use transform="matrix(0.05,0,0,0.05,9,0)" xlink:href="#bg"/><use transform="matrix(0.05,0,0,0.05,19,0)" xlink:href="#bf"/><use transform="matrix(0.05,0,0,0.05,29,0)" xlink:href="#bp"/><use transform="matrix(0.05,0,0,0.05,39,0)" xlink:href="#bt"/><use transform="matrix(0.05,0,0,0.05,42.95,0)" xlink:href="#bz"/></g><g id="aS"><use transform="matrix(0.05,0,0,0.05,0,0)" xlink:href="#bq"/><use transform="matrix(0.05,0,0,0.05,10,0)" xlink:href="#bi"/></g><g id="aT"><use transform="matrix(0.05,0,0,0.05,0,0)" xlink:href="#bg"/><use transform="matrix(0.05,0,0,0.05,10,0)" xlink:href="#bi"/><use transform="matrix(0.05,0,0,0.05,20,0)" xlink:href="#bm"/><use transform="matrix(0.05,0,0,0.05,25.950000000000003,0)" xlink:href="#bi"/></g><g id="aU"><use transform="matrix(0.05,0,0,0.05,0,0)" xlink:href="#bw"/><use transform="matrix(0.05,0,0,0.05,10,0)" xlink:href="#bf"/><use transform="matrix(0.05,0,0,0.05,20,0)" xlink:href="#bh"/><use transform="matrix(0.05,0,0,0.05,25,0)" xlink:href="#bg"/><use transform="matrix(0.05,0,0,0.05,35,0)" xlink:href="#bo"/><use transform="matrix(0.05,0,0,0.05,38.95,0)" xlink:href="#bw"/><use transform="matrix(0.05,0,0,0.05,48.95,0)" xlink:href="#bD"/></g><g id="aV"><use transform="matrix(0.05,0,0,0.05,0,0)" xlink:href="#bo"/><use transform="matrix(0.05,0,0,0.05,3.95,0)" xlink:href="#bw"/></g><g id="aW"><use transform="matrix(0.05,0,0,0.05,0,0)" xlink:href="#bC"/><use transform="matrix(0.05,0,0,0.05,5,0)" xlink:href="#bf"/><use transform="matrix(0.05,0,0,0.05,15,0)" xlink:href="#bt"/><use transform="matrix(0.05,0,0,0.05,18.95,0)" xlink:href="#bz"/><use transform="matrix(0.05,0,0,0.05,28.950000000000003,0)" xlink:href="#bi"/><use transform="matrix(0.05,0,0,0.05,38.95,0)" xlink:href="#bm"/></g><g id="aX"><use transform="matrix(0.05,0,0,0.05,0,0)" xlink:href="#bh"/><use transform="matrix(0.05,0,0,0.05,5,0)" xlink:href="#bf"/><use transform="matrix(0.05,0,0,0.05,15,0)" xlink:href="#bp"/><use transform="matrix(0.05,0,0,0.05,25,0)" xlink:href="#bv"/><use transform="matrix(0.05,0,0,0.05,34,0)" xlink:href="#bg"/><use transform="matrix(0.05,0,0,0.05,44,0)" xlink:href="#bi"/><use transform="matrix(0.05,0,0,0.05,54,0)" xlink:href="#bz"/></g><g id="aY"><use transform="matrix(0.05,0,0,0.05,0,0)" xlink:href="#bk"/><use transform="matrix(0.05,0,0,0.05,10,0)" xlink:href="#bA"/><use transform="matrix(0.05,0,0,0.05,19,0)" xlink:href="#bf"/><use transform="matrix(0.05,0,0,0.05,29,0)" xlink:href="#bo"/><use transform="matrix(0.05,0,0,0.05,32.95,0)" xlink:href="#bz"/></g><g id="aZ"><use transform="matrix(0.05,0,0,0.05,0,0)" xlink:href="#bk"/><use transform="matrix(0.05,0,0,0.05,10,0)" xlink:href="#bw"/><use transform="matrix(0.05,0,0,0.05,20,0)" xlink:href="#bs"/></g><g id="ba"><use transform="matrix(0.05,0,0,0.05,0,0)" xlink:href="#bl"/><use transform="matrix(0.05,0,0,0.05,9,0)" xlink:href="#bf"/><use transform="matrix(0.05,0,0,0.05,19,0)" xlink:href="#bC"/><use transform="matrix(0.05,0,0,0.05,24,0)" xlink:href="#bh"/><use transform="matrix(0.05,0,0,0.05,29,0)" xlink:href="#bx"/><use transform="matrix(0.05,0,0,0.05,41.95,0)" xlink:href="#bk"/><use transform="matrix(0.05,0,0,0.05,51.95,0)" xlink:href="#bm"/><use transform="matrix(0.05,0,0,0.05,57.900000000000006,0)" xlink:href="#bi"/></g><g id="bb"><use transform="matrix(0.05,0,0,0.05,0,0)" xlink:href="#bi"/><use transform="matrix(0.05,0,0,0.05,10,0)" xlink:href="#by"/><use transform="matrix(0.05,0,0,0.05,19,0)" xlink:href="#bi"/><use transform="matrix(0.05,0,0,0.05,29,0)" xlink:href="#bv"/><use transform="matrix(0.05,0,0,0.05,38,0)" xlink:href="#bp"/><use transform="matrix(0.05,0,0,0.05,48,0)" xlink:href="#bh"/><use transform="matrix(0.05,0,0,0.05,53,0)" xlink:href="#bo"/><use transform="matrix(0.05,0,0,0.05,56.95,0)" xlink:href="#bf"/><use transform="matrix(0.05,0,0,0.05,66.95,0)" xlink:href="#bw"/></g><g id="bc"><use transform="matrix(0.05,0,0,0.05,0,0)" xlink:href="#bi"/><use transform="matrix(0.05,0,0,0.05,10,0)" xlink:href="#bm"/><use transform="matrix(0.05,0,0,0.05,15.949999999999998,0)" xlink:href="#bm"/><use transform="matrix(0.05,0,0,0.05,21.9,0)" xlink:href="#bf"/><use transform="matrix(0.05,0,0,0.05,31.899999999999995,0)" xlink:href="#bm"/><use transform="matrix(0.05,0,0,0.05,37.85,0)" xlink:href="#bl"/></g><g id="bd"><use transform="matrix(0.05,0,0,0.05,0,0)" xlink:href="#bp"/><use transform="matrix(0.05,0,0,0.05,10,0)" xlink:href="#bl"/><use transform="matrix(0.05,0,0,0.05,19,0)" xlink:href="#bi"/><use transform="matrix(0.05,0,0,0.05,29,0)" xlink:href="#bm"/></g><g id="be"><use transform="matrix(0.05,0,0,0.05,0,0)" xlink:href="#bj"/><use transform="matrix(0.05,0,0,0.05,14.950000000000001,0)" xlink:href="#bk"/><use transform="matrix(0.05,0,0,0.05,24.950000000000003,0)" xlink:href="#bw"/><use transform="matrix(0.05,0,0,0.05,34.95,0)" xlink:href="#bp"/><use transform="matrix(0.05,0,0,0.05,44.95,0)" xlink:href="#bk"/><use transform="matrix(0.05,0,0,0.05,54.95,0)" xlink:href="#bt"/></g></defs></g></svg>